<?xml version="1.0" encoding="utf-8"?>
<!-- Generator: Adobe Illustrator 26.0.0, SVG Export Plug-In . SVG Version: 6.00 Build 0)  -->
<svg version="1.1" xmlns="http://www.w3.org/2000/svg" xmlns:xlink="http://www.w3.org/1999/xlink" x="0px" y="0px"
	 viewBox="0 0 35 21" style="enable-background:new 0 0 35 21;" xml:space="preserve">
<style type="text/css">
	.st0{fill:#211261;}
	.st1{fill:#B784CA;}
	.st2{fill:#E7E3ED;}
	.st3{fill:none;stroke:#211261;stroke-width:0.3056;stroke-miterlimit:10;}
	.st4{fill:#F789BE;}
</style>
<g id="Layer_1">
</g>
<g id="Artwork">
	<g>
		<g>
			<g>
				<path class="st0" d="M32.6,19.2l-3.2-0.1c-1.1-0.1-2.1,0-3.1,0.2c-0.5,0.1-1,0.3-1.5,0.4c-0.3,0.1-0.5,0.1-0.8,0.2L23.8,20
					c-0.1,0,0,0-0.2,0.1c-0.2,0.1-0.3,0.1-0.5,0.1c-0.6,0.1-1.1,0.1-1.7,0c-0.5-0.1-1.1-0.1-1.6-0.1c-0.3,0-0.5,0-0.7,0
					c-0.3,0.1-0.6,0.1-0.9,0c-0.3,0-0.6-0.1-0.8-0.2c-0.2-0.1-0.5-0.1-0.7-0.2c-0.5-0.1-1-0.1-1.6-0.2c-0.3,0-0.5,0-0.9-0.2
					c-0.1,0-0.2-0.1-0.3-0.3c0-0.2,0-0.2,0-0.3c0-0.2,0-0.3,0.1-0.5c0.2-0.4,0.6-0.5,0.8-0.5c0.3-0.1,0.6-0.1,0.8-0.1
					c0.5,0,1.1,0,1.6,0.1c0.5,0.1,1,0.2,1.5,0.1c0.5-0.1,1.1-0.1,1.6,0c0,0,0,0,0,0c0,0,0,0,0,0c-0.5,0-1.1,0.1-1.6,0.2
					c-0.5,0.1-1.1,0-1.6,0c-0.5-0.1-1.1-0.1-1.6-0.1c-0.3,0-0.5,0-0.8,0.1c-0.3,0-0.5,0.1-0.6,0.4c0,0.1,0,0.2,0,0.4
					c0,0.1,0,0.2,0.1,0.3c0.2,0.1,0.5,0.1,0.8,0.1c0.5,0,1.1,0.1,1.6,0.2c0.5,0.1,1,0.3,1.5,0.4c0.3,0,0.5,0,0.8,0
					c0.3,0,0.5,0,0.8,0c1.1,0,2.1,0.3,3.2,0.1c0.1,0,0.3,0,0.4-0.1c0.1,0,0.3-0.1,0.4-0.1c0.3-0.1,0.5-0.1,0.8-0.2
					c0.5-0.1,1-0.2,1.6-0.4c0.5-0.1,1.1-0.2,1.6-0.3c0.6,0,1.1,0.1,1.6,0.1C30.5,18.9,31.6,19,32.6,19.2
					C32.6,19.1,32.6,19.2,32.6,19.2C32.6,19.2,32.6,19.2,32.6,19.2L32.6,19.2z"/>
			</g>
			<g>
				<path class="st0" d="M14.1,18.5l-0.6,0c-0.2,0-0.4,0-0.6-0.2c-0.2-0.2-0.2-0.5-0.1-0.7c0.1-0.2,0.2-0.4,0.4-0.5
					c0.4-0.3,0.8-0.2,1.2-0.2l1.1,0.1c0.8,0,1.5,0.2,2.2,0.2c0.2,0,0.4,0,0.6,0l0.6,0.1c0.4,0.1,0.7,0.1,1.1,0.1c0,0,0,0,0,0
					c0,0,0,0,0,0c-0.4,0-0.8,0-1.1,0c-0.4-0.1-0.7-0.1-1.1-0.1c-0.8,0.1-1.5-0.1-2.3-0.1l-1.1-0.1c-0.4,0-0.8-0.1-1,0.1
					c-0.2,0.2-0.4,0.6-0.2,0.8c0.1,0.1,0.3,0.1,0.5,0.1l0.6,0c0.1,0,0.1,0.1,0.1,0.2C14.2,18.5,14.2,18.6,14.1,18.5z"/>
			</g>
			<g>
				<path class="st0" d="M13.2,17.1c0-0.3,0.2-0.7,0.6-0.8c0.3-0.1,0.6,0,0.9,0c0.6,0.1,1.1,0.2,1.7,0.2c0.3,0,0.6,0.1,0.9,0.1
					c0.1,0,0.3,0,0.4,0c0.2,0,0.3,0,0.5,0c0.6,0.2,1.1,0.4,1.7,0.3c0,0,0,0,0,0c0,0,0,0,0,0c-0.6,0.2-1.2,0-1.7-0.1
					c-0.3-0.1-0.6,0-0.9-0.1c-0.3-0.1-0.6-0.1-0.9-0.1c-0.6,0-1.2-0.1-1.7-0.2c-0.3,0-0.6-0.1-0.8,0c-0.2,0-0.4,0.3-0.4,0.5
					c0,0.1-0.1,0.1-0.1,0.1C13.2,17.2,13.2,17.2,13.2,17.1L13.2,17.1z"/>
			</g>
			<g>
				<path class="st0" d="M20.3,16.8c0-0.2,0.2-0.4,0.3-0.5c0.2-0.1,0.4-0.1,0.5-0.2c0.2,0,0.4-0.1,0.6,0c0.2,0,0.3,0.1,0.6,0.1l0,0
					l-0.1,0c0.4-0.2,0.9-0.4,1.3-0.5c0.4-0.1,0.8-0.3,1.3-0.5c0.9-0.2,1.7-0.6,2.7-0.7c0.5,0,1,0.1,1.3,0.4c0.2,0.2,0.3,0.4,0.4,0.5
					c0.2,0.1,0.3,0.2,0.6,0.3c0.9,0.1,1.8,0.1,2.7,0.1c0,0,0,0,0,0c0,0,0,0,0,0c-0.9,0-1.8,0.2-2.8,0.1c-0.2,0-0.5-0.1-0.7-0.3
					c-0.1-0.1-0.2-0.2-0.3-0.3c-0.1-0.1-0.1-0.1-0.2-0.2c-0.3-0.2-0.7-0.3-1.1-0.3c-0.8,0-1.7,0.4-2.6,0.6c-0.4,0.1-0.8,0.3-1.3,0.4
					c-0.5,0.1-0.9,0.2-1.3,0.4l-0.1,0l0,0c-0.1,0-0.3-0.1-0.5-0.1c-0.2,0-0.3,0-0.5,0c-0.2,0-0.3,0-0.5,0.1
					C20.5,16.5,20.4,16.6,20.3,16.8C20.3,16.8,20.3,16.8,20.3,16.8C20.3,16.8,20.3,16.8,20.3,16.8z"/>
			</g>
			<g>
				<path class="st0" d="M26.6,18.9c0.3-0.1,0.6-0.3,0.9-0.5c0.3-0.2,0.6-0.4,0.8-0.6c0,0,0.1,0,0.1,0c0,0,0,0,0,0.1l0,0
					c-0.2,0.3-0.5,0.5-0.7,0.8c-0.1,0.1-0.3,0.2-0.5,0.3c-0.2,0.1-0.3,0.2-0.5,0.2l0,0c-0.1,0-0.1,0-0.1-0.1
					C26.6,19,26.6,18.9,26.6,18.9z"/>
			</g>
			<g>
				<path class="st0" d="M21.6,19.3c0.2-0.2,0.4-0.5,0.3-0.9c0.2,0.3,0,0.7-0.2,1c0,0.1-0.1,0.1-0.2,0S21.5,19.4,21.6,19.3
					C21.6,19.3,21.6,19.3,21.6,19.3z"/>
			</g>
			<g>
				<path class="st0" d="M15.8,16.7c-0.1-0.3,0.1-0.6,0.3-0.7c0.2-0.1,0.5-0.2,0.7-0.2c0.4-0.1,0.9,0,1.3,0c0.4,0,0.9,0.1,1.3,0.1
					c0.4,0,0.9,0.2,1.2,0.4c0,0,0,0,0,0.1c0,0,0,0-0.1,0c-0.4-0.1-0.8-0.3-1.2-0.3l-1.3,0c-0.4,0-0.8-0.1-1.3-0.1
					c-0.4,0-0.8,0.2-0.8,0.5c0,0.1,0,0.1-0.1,0.1C15.9,16.8,15.9,16.8,15.8,16.7z"/>
			</g>
			<g>
				<g>
					<path class="st1" d="M18,16.5c0.4,0.5,0,1.4-2,1.3c-2-0.1-2.1-1.3-1.6-2c0.4-0.6,1.3-0.6,1.4-0.7c0,0-0.2-0.2-0.1-0.4
						c0.1-0.3,0.9-0.3,1.3-0.2c0.5,0.1,0.9,0.4,1,1C18.1,16,18,16.5,18,16.5z"/>
					<path class="st0" d="M18.1,16.5c0,0.1,0.1,0.3,0.1,0.5c0,0.2-0.1,0.4-0.2,0.5c-0.3,0.3-0.6,0.4-1,0.4c-0.7,0.1-1.4,0.1-2-0.1
						c-0.3-0.1-0.6-0.4-0.8-0.7c-0.2-0.3-0.2-0.7-0.1-1.1c0.2-0.7,1.1-1.2,1.7-1l0,0.1l0,0l0,0l0,0l0,0c-0.1,0-0.2-0.1-0.2-0.2
						c-0.1-0.1,0-0.3,0.1-0.4c0.2-0.1,0.4-0.1,0.6-0.1c0.4,0,0.8,0,1.1,0.1c0.3,0.1,0.7,0.4,0.8,0.8C18.3,15.8,18.2,16.2,18.1,16.5z
						 M17.9,16.5c0.1-0.4,0.1-0.7,0-1c-0.1-0.3-0.4-0.5-0.7-0.7c-0.3-0.1-0.7-0.2-1-0.1c-0.2,0-0.3,0.1-0.4,0.1
						c-0.1,0-0.1,0.2,0,0.3l0,0l0,0l0,0l0,0l0,0c0,0,0,0.1,0,0.1c0,0,0,0,0,0c-0.6,0-1.3,0.3-1.5,0.9c-0.1,0.3-0.1,0.6,0.1,0.9
						c0.2,0.3,0.4,0.4,0.7,0.5c0.6,0.2,1.3,0.2,1.9,0.1c0.3-0.1,0.6-0.2,0.8-0.4c0.1-0.1,0.2-0.2,0.2-0.4C18,16.8,18,16.7,17.9,16.5
						z"/>
				</g>
				<g>
					<path class="st1" d="M18,16.5c0,0-0.1,0.3-0.9,0.5c-0.4,0.1-0.9,0-1.1-0.1"/>
					<path class="st0" d="M18.1,16.5c0,0.3-0.2,0.3-0.4,0.4c-0.2,0.1-0.3,0.1-0.5,0.2c-0.4,0.1-0.8,0-1.1-0.2c0,0,0,0,0,0
						c0,0,0,0,0,0c0.3,0.2,0.7,0.1,1,0.1c0.3-0.1,0.7-0.2,0.8-0.5C18,16.4,18,16.4,18.1,16.5C18,16.5,18.1,16.5,18.1,16.5L18.1,16.5
						z"/>
				</g>
				<g>
					<path class="st0" d="M15.8,15.1c0.5,0,0.9,0.2,1.2,0.4c0,0,0,0,0,0c0,0,0,0,0,0c-0.4-0.2-0.8-0.3-1.2-0.3l0,0
						C15.8,15.2,15.8,15.2,15.8,15.1C15.8,15.1,15.8,15.1,15.8,15.1C15.8,15.1,15.8,15.1,15.8,15.1z"/>
				</g>
			</g>
			<g>
				<path class="st0" d="M24.9,16.1c-0.1,0.3-0.2,0.5-0.4,0.7c-0.2,0.2-0.4,0.3-0.7,0.5c-0.5,0.3-1.1,0.3-1.6,0.4
					c-0.5,0.1-1.1,0.2-1.3,0.7c-0.1,0.2-0.2,0.5-0.2,0.7c0,0.1,0.4,0.2,0.6,0.2c0.5,0,1.1,0.1,1.6,0.1c0.5,0,1-0.3,1.5-0.4
					c1-0.4,2.2-0.3,3-1c0,0,0,0,0.1,0c0,0,0,0,0,0.1l0,0c-0.4,0.4-0.9,0.7-1.4,0.8c-0.5,0.2-1.1,0.2-1.6,0.4
					c-0.3,0.1-0.5,0.2-0.7,0.3c-0.3,0.1-0.6,0.2-0.9,0.2c-0.6,0-1.1-0.1-1.6-0.1c-0.1,0-0.3,0-0.4-0.1c-0.1,0-0.4-0.1-0.4-0.3
					c0-0.4,0.1-0.6,0.2-0.9c0.1-0.3,0.4-0.5,0.7-0.6c0.3-0.1,0.5-0.2,0.8-0.3c0.3-0.1,0.5-0.1,0.8-0.2c0.3,0,0.4-0.1,0.7-0.2
					c0.2-0.1,0.5-0.2,0.7-0.3C24.5,16.6,24.7,16.4,24.9,16.1L24.9,16.1C24.8,16.1,24.9,16.1,24.9,16.1
					C24.9,16.1,24.9,16.1,24.9,16.1z"/>
			</g>
		</g>
		<g>
			<g>
				<g>
					<g>
						<path class="st2" d="M6.2,5.1C5.9,5.1,5.6,5.3,5.5,5.6L4.7,9.2C4.6,9.6,4.8,9.9,5.1,9.9c0,0,9.4,2,9.9,2.1
							c0.7,0.1,1.1-0.4,1.1-0.4c0.2-0.3,0.4-0.7,0.5-1l0.3-1.4C17,8.8,17,8.3,16.9,8c0,0-0.2-0.6-0.8-0.7C15.6,7.2,6.2,5.1,6.2,5.1z
							"/>
						<path class="st3" d="M6.2,5.1C5.9,5.1,5.6,5.3,5.5,5.6L4.7,9.2C4.6,9.6,4.8,9.9,5.1,9.9c0,0,9.4,2,9.9,2.1
							c0.7,0.1,1.1-0.4,1.1-0.4c0.2-0.3,0.4-0.7,0.5-1l0.3-1.4C17,8.8,17,8.3,16.9,8c0,0-0.2-0.6-0.8-0.7C15.6,7.2,6.2,5.1,6.2,5.1z
							"/>
					</g>
					<g>
						<path class="st0" d="M5.8,5.8C5.6,5.7,5.4,5.9,5.4,6L5.2,6.8c0,0.2,0.1,0.3,0.2,0.4l11,2.4c0.2,0,0.3-0.1,0.4-0.2l0.2-0.8
							c0-0.2-0.1-0.3-0.2-0.4L5.8,5.8z"/>
					</g>
					<g>
						<path class="st0" d="M5.3,7.5c-0.1,0-0.2,0-0.3,0.2l0,0.2C5,8,5,8.1,5.2,8.1l11.3,2.5c0.1,0,0.2,0,0.3-0.2l0-0.2
							c0-0.1,0-0.2-0.2-0.3L5.3,7.5z"/>
					</g>
					<g>
						<path class="st0" d="M17.1,7.8c0.1,0,0.1,0.1,0.1,0.3l-0.8,3.7c0,0.1-0.1,0.3-0.2,0.2c-0.1,0-0.1-0.1-0.1-0.3L16.9,8
							C17,7.9,17,7.8,17.1,7.8z"/>
					</g>
				</g>
				<g>
					<polyline class="st2" points="16.5,11.1 16.8,11.2 16.8,11.8 17.8,12 18.2,10.1 18.3,9 17,8.4 					"/>
					<path class="st0" d="M16.5,11c0.1,0,0.2,0,0.3,0.1l0.1,0l0,0.1c0,0.2,0,0.5,0,0.7l-0.1-0.1l0.9,0.1l-0.2,0.1
						c0-0.2,0.1-0.5,0.2-0.7c0.1-0.2,0.1-0.5,0.1-0.7L18.2,9l0.1,0.2l-1.3-0.6l0.2-0.3l1.3,0.6l0.1,0.1l0,0.1
						c-0.1,0.5-0.2,1-0.3,1.5c-0.1,0.2-0.1,0.5-0.2,0.7c0,0.2-0.1,0.5-0.1,0.7l0,0.2l-0.2,0L16.8,12l-0.1,0l0-0.1c0-0.2,0-0.4,0-0.7
						l0.1,0.1c-0.1,0-0.2,0-0.3,0L16.5,11z"/>
				</g>
			</g>
			<g>
				<path class="st2" d="M15.2,6.6c0,0,0.9,0.3,1.3,0.3s0.5,0.3,0.6,0.4C17.3,7.5,17.7,8,17.8,8c0.1,0.1,0.3,0.4,0.3,0.4
					s0,0.2,0,0.7c0,0.4,0.4,0.6,0.6,0.6s0.4-0.2,0.4-0.6c-0.1-0.4,0-0.8,0-1.1c0-0.2-0.1-0.3-0.4-0.7c-0.3-0.4-0.5-0.9-0.7-1.2
					c-0.1-0.3-0.5-0.4-1.1-0.6s-1.2-0.6-1.9-0.9c-0.6-0.3-2.3-0.8-3.3-1.2S9.8,2.5,8.5,2"/>
				<path class="st0" d="M15.3,6.5c0.3,0,0.6,0.1,0.9,0.2c0.1,0,0.3,0.1,0.4,0.1c0.2,0,0.4,0.1,0.5,0.2c0.3,0.2,0.4,0.4,0.6,0.7
					L17.9,8c0.1,0.1,0.2,0.3,0.2,0.4l0,0l0,0c0,0,0,0,0,0c0,0.2,0,0.4,0,0.5c0,0.2,0,0.3,0,0.4c0.1,0.2,0.6,0.3,0.6,0.1
					c0.1-0.2,0-0.6,0-0.9c0-0.2,0-0.4,0-0.5c0-0.1-0.1-0.2-0.2-0.3c-0.2-0.3-0.4-0.6-0.6-0.9c-0.2-0.3-0.3-0.7-0.5-0.8
					C17.4,6,17,5.9,16.7,5.8c-0.3-0.1-0.6-0.3-0.9-0.4c-1.1-0.8-2.4-1-3.7-1.5c-1.3-0.5-2.4-1.3-3.6-1.8C8.3,2.1,8.3,2,8.3,1.9
					c0-0.1,0.1-0.1,0.2-0.1l0,0c1.3,0.5,2.4,1.3,3.6,1.7c0.6,0.2,1.3,0.4,1.9,0.6c0.6,0.2,1.3,0.5,1.9,0.8c0.3,0.2,0.6,0.3,0.9,0.4
					c0.3,0.1,0.6,0.1,1,0.3c0.2,0.1,0.4,0.4,0.4,0.5l0.2,0.4C18.6,7,18.8,7.3,19,7.5c0.1,0.1,0.3,0.3,0.3,0.5c0,0.2,0,0.3,0,0.5
					c0,0.2,0,0.3,0.1,0.5c0,0.2,0.1,0.4-0.1,0.6C19.2,9.8,19,9.9,18.9,10c-0.2,0-0.3,0-0.4,0c-0.2-0.1-0.4-0.1-0.6-0.4
					c-0.2-0.2-0.1-0.5-0.1-0.6c0-0.2,0-0.3,0-0.5l0,0.1l0,0c-0.1-0.1-0.1-0.3-0.2-0.3l-0.3-0.3c-0.2-0.2-0.4-0.5-0.6-0.6
					c-0.1-0.1-0.2-0.1-0.3-0.1c-0.2,0-0.3-0.1-0.5-0.1c-0.3-0.1-0.6-0.2-0.8-0.3c-0.1,0-0.1-0.1-0.1-0.2C15.1,6.6,15.2,6.5,15.3,6.5
					L15.3,6.5z"/>
			</g>
			<g>
				<path class="st2" d="M0.7,5.2L0.3,4c0,0,0.8-1.3,0.9-1.4c0.1,0,3.8,1,3.8,1l1.3,1.4l0.2,0.2L0.7,5.2z"/>
			</g>
			<g>
				<path class="st0" d="M0.9,5.1c1,0,1.9,0,2.9,0l1.4,0c0.5,0,1,0,1.4,0.1c0.1,0,0.1,0.1,0.1,0.1c0,0.1-0.1,0.1-0.1,0.1l0,0
					c-1.9,0-3.8-0.1-5.7-0.1c-0.1,0-0.1-0.1-0.1-0.1C0.8,5.1,0.9,5.1,0.9,5.1L0.9,5.1z"/>
			</g>
			<g>
				<path class="st2" d="M12.2,4c0,0,0.4,0.1,1.1,0.5c0.8,0.3,1,0.6,1.2,0.8s0.4,0.7,0.5,1c0.2,0.3,0.6,1,1,1.6
					c0.4,0.6,0.3,0.9,0.3,1.1c0,0.2,0,0.9-0.2,1.6c-0.2,0.7-0.6,0.8-1.2,0.9s-0.7,0.3-0.9-0.1c-0.2-0.4,0.1-0.6,0.2-0.7
					c0.1-0.2,0.3-0.2,0.4-0.5s0.2-0.9,0.2-1.1c0-0.2-0.2-0.5-0.4-0.9c-0.2-0.4-0.5-0.7-0.5-0.7s-0.7,0.2-0.7,0.3s-0.4,0.5-0.4,0.5
					l-0.7-0.8L8.2,5.6"/>
				<path class="st0" d="M12.2,3.9c0.6,0.3,1.2,0.4,1.8,0.8c0.3,0.2,0.6,0.4,0.7,0.7C14.9,5.7,15,6,15.2,6.3l1,1.6
					c0.1,0.1,0.2,0.3,0.2,0.5c0,0.2,0,0.4,0,0.5c0,0.3,0,0.7-0.1,1c-0.1,0.3-0.1,0.7-0.3,1c-0.2,0.3-0.6,0.5-0.9,0.6
					c-0.4,0.1-0.6,0.2-1,0.2c-0.1,0-0.3-0.1-0.3-0.2c-0.1-0.1-0.1-0.2-0.1-0.3c-0.1-0.2,0-0.5,0.2-0.6l0.2-0.2
					c0.1-0.1,0.1-0.1,0.2-0.2c0.1-0.1,0.1-0.1,0.2-0.3c0-0.3,0.1-0.7,0.2-0.9c0-0.2-0.2-0.5-0.4-0.8c-0.1-0.3-0.3-0.5-0.5-0.7l0,0
					l0.1,0l-0.6,0.2l0,0c0,0,0,0,0,0c0,0,0,0,0,0l-0.1,0.1L13,7.9l-0.2,0.3c0,0-0.1,0.1-0.2,0l0,0l-0.7-0.8l0,0L8.1,5.7
					C8.1,5.7,8,5.6,8.1,5.5s0.1-0.1,0.2-0.1L12,7.2c0,0,0,0,0,0L12.8,8l-0.2,0l0.2-0.2l0.1-0.1L13,7.6c0,0,0,0,0,0
					c0-0.1,0.1-0.1,0.1-0.1l0,0l0.6-0.2c0,0,0.1,0,0.1,0l0,0c0.3,0.2,0.5,0.5,0.6,0.8c0.1,0.3,0.3,0.5,0.4,0.9c0,0.4-0.1,0.7-0.1,1
					c0,0.1-0.1,0.4-0.3,0.5c-0.1,0.1-0.1,0.1-0.2,0.1l-0.2,0.2c-0.1,0.1-0.1,0.2-0.1,0.3c0,0.1,0.1,0.3,0.1,0.2
					c0.2,0,0.6-0.1,0.9-0.2c0.3-0.1,0.5-0.2,0.7-0.4c0.1-0.2,0.2-0.6,0.2-0.9c0-0.3,0.1-0.6,0-1c0.1-0.4,0-0.6-0.2-0.8l-1-1.7
					c-0.4-0.6-0.5-1.2-1-1.6C13.4,4.5,12.8,4.3,12.2,3.9C12.2,4,12.2,4,12.2,3.9C12.2,3.9,12.2,3.9,12.2,3.9z"/>
			</g>
			<g>
				<path class="st2" d="M5.7,4.3c0,0,0.9,1.1,1.4,1.5c0.5,0.4,1.1,0.6,1.7,0.9S9.8,7.1,10,7.4s0.5,0.4,0.7,1.3s0.4,1.4,0.4,1.6
					s0,0.9,0.3,1c0.3,0.1,0.5,0.1,0.7-0.2s0.3-0.9,0.2-1.3c-0.1-0.4-0.2-1.1-0.3-1.7s0.3-1.2,0.3-1.2"/>
				<path class="st0" d="M5.7,4.3c0.5,0.4,0.9,0.9,1.3,1.2c0.4,0.4,1,0.6,1.6,0.9c0.3,0.2,0.5,0.3,0.8,0.4C9.7,7,10,7.2,10.2,7.4
					c0.2,0.2,0.4,0.5,0.5,0.8c0.1,0.3,0.2,0.6,0.2,0.9l0.2,0.9c0.1,0.3,0,0.7,0.1,0.9c0,0.1,0.1,0.2,0.2,0.2c0.1,0,0.2,0.1,0.3,0
					c0.2-0.1,0.4-0.4,0.4-0.7c0.1-0.6-0.1-1.2-0.1-1.8c0-0.3-0.1-0.6-0.1-0.9c0-0.3,0.1-0.6,0.3-0.9c0-0.1,0.1-0.1,0.2-0.1
					c0.1,0,0.1,0.1,0.1,0.2l0,0c-0.1,0.3-0.2,0.6-0.2,0.8c0,0.3,0.1,0.6,0.1,0.9c0.1,0.6,0.3,1.2,0.2,1.9c-0.1,0.3-0.2,0.7-0.6,0.9
					c-0.2,0.1-0.4,0.1-0.6,0C11.1,11.5,11,11.2,11,11c-0.1-0.4,0-0.7-0.1-0.9l-0.2-0.9C10.5,8.6,10.5,8,10,7.6
					C9.9,7.3,9.6,7.2,9.3,7.1C9,7,8.7,6.8,8.5,6.7C7.9,6.4,7.3,6.3,6.8,5.8C6.4,5.3,6,4.9,5.7,4.3C5.7,4.3,5.7,4.3,5.7,4.3
					C5.7,4.3,5.7,4.3,5.7,4.3z"/>
			</g>
			<g>
				<path class="st2" d="M13.7,6.8c0,0,0.1,1,0.3,1.6c0.2,0.6,0.4,0.9,0.2,1.3s-0.5,1.2-0.7,1.6c-0.3,0.4-1,0.4-1.4,0.1
					c-0.3-0.3,0.3-0.7,0.3-0.7s0.4-0.8,0.5-0.9c0-0.2-0.2-0.6-0.3-1.2c-0.1-0.5-0.4-0.9-0.4-0.9s0.1-0.7,0.3-1.1"/>
				<path class="st0" d="M13.7,6.8C14,7.1,13.9,7.4,14,7.6c0.1,0.3,0.1,0.6,0.2,0.9c0.1,0.3,0.2,0.6,0.2,0.9c0,0.4-0.2,0.6-0.3,0.9
					c-0.1,0.3-0.2,0.6-0.4,0.8c-0.1,0.1-0.1,0.3-0.3,0.4c-0.1,0.1-0.3,0.2-0.5,0.2c-0.3,0.1-0.7,0-1-0.2c-0.1,0-0.2-0.2-0.2-0.3
					c0-0.1,0-0.2,0.1-0.3c0.1-0.2,0.2-0.3,0.3-0.4l0,0l0,0c0.1-0.2,0.3-0.5,0.4-0.7c0-0.1,0.1-0.1,0.1-0.2c0,0,0-0.1,0-0.1
					c0-0.1-0.1-0.2-0.1-0.4c-0.2-0.5-0.3-1.1-0.6-1.5l0,0l0,0c0,0,0-0.1,0-0.1c0.1-0.4,0.2-0.8,0.4-1.1c0,0,0,0,0.1,0c0,0,0,0,0,0.1
					c-0.1,0.3-0.2,0.7-0.2,1.1l0-0.1l0,0c0.3,0.5,0.4,1,0.6,1.5c0,0.1,0.1,0.3,0.1,0.4c0,0.1,0,0.2,0,0.3c0,0.1-0.1,0.1-0.1,0.2
					c-0.1,0.2-0.3,0.5-0.4,0.7l0,0l0,0l0,0c-0.2,0.2-0.4,0.5-0.2,0.5c0.2,0.1,0.5,0.2,0.8,0.2c0.3,0,0.4-0.2,0.6-0.5
					c0.1-0.3,0.3-0.5,0.4-0.8c0.1-0.3,0.3-0.6,0.3-0.8c0-0.3-0.1-0.5-0.2-0.8C13.8,8,13.7,7.4,13.7,6.8C13.7,6.8,13.7,6.8,13.7,6.8
					C13.7,6.8,13.7,6.8,13.7,6.8L13.7,6.8z"/>
			</g>
			<g>
				<path class="st0" d="M9.5,2.6C8.9,2.3,8.2,2,7.6,1.9C7.3,1.7,7,1.7,6.6,1.7l-1-0.1L1.6,1C1.6,1,1.5,0.9,1.5,0.9
					c0-0.1,0.1-0.1,0.1-0.1l0,0c1.3,0.1,2.7,0.3,4,0.5c0.7,0.1,1.3,0.1,2,0.3C8.3,1.8,9,2,9.6,2.4c0.1,0,0.1,0.1,0,0.2
					C9.6,2.6,9.5,2.6,9.5,2.6z"/>
			</g>
		</g>
	</g>
	<g>
		<path class="st4" d="M30.8,19.6v-7.8h-2.9V9.8c1.8,0,3.1-1,3.3-2.3h2.5v12H30.8z"/>
	</g>
</g>
</svg>
