<svg xmlns="http://www.w3.org/2000/svg" viewBox="0 0 33.77 31.11">
  <defs>
    <style>
      .cls-1 {
        fill: #211261;
      }

      .cls-2, .cls-3, .cls-6 {
        fill: none;
      }

      .cls-2, .cls-3, .cls-6, .cls-7 {
        stroke: #211261;
        stroke-linecap: round;
        stroke-linejoin: round;
      }

      .cls-2 {
        stroke-width: 0.23px;
      }

      .cls-3 {
        stroke-width: 0.26px;
      }

      .cls-4 {
        fill: #e7e3ed;
      }

      .cls-5, .cls-7 {
        fill: #b784ca;
      }

      .cls-6, .cls-7 {
        stroke-width: 0.2px;
      }

      .cls-8 {
        fill: #f789be;
      }
    </style>
  </defs>
  <g id="Artwork">
    <g>
      <path class="cls-1" d="M27.84,26.45c-.67-1.19-1.32-2.38-2.06-3.53s-1.5-2.27-2.14-3.53a5.93,5.93,0,0,0-.91-1.77,4.07,4.07,0,0,0-1.6-1.1,10.16,10.16,0,0,0-2-.41,5.62,5.62,0,0,1-1-.25,1.76,1.76,0,0,1-.51-.26.87.87,0,0,1-.23-.29.55.55,0,0,1,0-.42l0-.11a.23.23,0,0,1,.31-.1.22.22,0,0,1,.1.31s0,.06-.07.09.17.28.47.38a5.87,5.87,0,0,0,1,.25,10,10,0,0,1,2,.46A4.33,4.33,0,0,1,23,17.4a6,6,0,0,1,.94,1.87c.59,1.19,1.38,2.33,2.08,3.5A24.78,24.78,0,0,1,28,26.4a.06.06,0,0,1,0,.08A.07.07,0,0,1,27.84,26.45Z" transform="translate(-0.92 -1.4)"/>
      <path class="cls-1" d="M19.62,20.26a3.62,3.62,0,0,0,1.22,1.87,2.28,2.28,0,0,1,1,.65,11.44,11.44,0,0,1,.65,1h0a25,25,0,0,1,1.12,3.36,15.94,15.94,0,0,0,1.46,3.13,3.7,3.7,0,0,0,2.73,1.62.84.84,0,0,0,.67-.16,3.38,3.38,0,0,0,.39-.71,2.69,2.69,0,0,0,.27-1.63h0a.1.1,0,0,1,.07-.12.11.11,0,0,1,.12.07,3,3,0,0,1-.16,1.8,3.47,3.47,0,0,1-.41.85,1.23,1.23,0,0,1-1,.32A4.38,4.38,0,0,1,26,31.83a3.93,3.93,0,0,1-.78-.52,3.15,3.15,0,0,1-.59-.74,16.14,16.14,0,0,1-1.45-3.27,27.84,27.84,0,0,0-1-3.35h0c-.2-.33-.38-.71-.59-1a2,2,0,0,0-.92-.62,2.84,2.84,0,0,1-.85-.91,3.34,3.34,0,0,1-.37-1.13v0a.06.06,0,0,1,.05-.07A.07.07,0,0,1,19.62,20.26Z" transform="translate(-0.92 -1.4)"/>
      <path class="cls-1" d="M17.56,21.16c.36-.06.76-.19.89-.48a2.6,2.6,0,0,0,.22-1.1v0a.12.12,0,0,1,.13-.1.11.11,0,0,1,.11.1,2.33,2.33,0,0,1-.15,1.29,1,1,0,0,1-.54.45,1.39,1.39,0,0,1-.66.1.12.12,0,0,1-.11-.13.13.13,0,0,1,.1-.11Z" transform="translate(-0.92 -1.4)"/>
      <g>
        <path class="cls-1" d="M17.6,14.74a4.87,4.87,0,0,0,.94.35.73.73,0,0,0,.81-.2,1,1,0,0,0,.13-.43c0-.09,0-.17.05-.27a.5.5,0,0,1,.17-.26c.13-.13.29-.22.4-.33a.16.16,0,0,0,0-.26h0l0-.21a.5.5,0,0,0,.23-.18c.07-.1.05-.1,0-.29a.93.93,0,0,1,.34-.76h0l.06,0c.2,0,.41-.14.45-.28s-.09-.36-.18-.56a2.31,2.31,0,0,1-.2-.68,1.48,1.48,0,0,1,0-.37A1.51,1.51,0,0,1,21,9.62a.12.12,0,0,1,.15-.07.12.12,0,0,1,.06.15h0v0a1,1,0,0,0-.1.27,1.2,1.2,0,0,0,0,.32,1.94,1.94,0,0,0,.18.61c.07.21.26.39.19.73a.79.79,0,0,1-.63.44l.06,0h0a.79.79,0,0,0-.33.58.74.74,0,0,0,0,.19.32.32,0,0,1-.05.22.69.69,0,0,1-.34.29l0-.21h0a.39.39,0,0,1,0,.62c-.14.14-.28.23-.39.33s-.06.59-.3.94a1,1,0,0,1-1.09.33,3.14,3.14,0,0,1-1-.42h0a.12.12,0,0,1,0-.16A.12.12,0,0,1,17.6,14.74Z" transform="translate(-0.92 -1.4)"/>
        <path class="cls-2" d="M22.05,7.13a7,7,0,0,1-.08,1,2.1,2.1,0,0,1-.52,1" transform="translate(-0.92 -1.4)"/>
        <path class="cls-1" d="M21.16,9.51a3.88,3.88,0,0,1,.36-.87A1.83,1.83,0,0,1,22,8.23a.44.44,0,0,1,0,.47C22,8.92,21.54,8.87,21.16,9.51Z" transform="translate(-0.92 -1.4)"/>
        <path class="cls-1" d="M21.1,9.64s-.06.21.29.4a.91.91,0,0,0,.59.12,1.55,1.55,0,0,1-.67.09c-.38,0-.37-.26-.37-.26Z" transform="translate(-0.92 -1.4)"/>
        <path class="cls-1" d="M21.16,9.52s-.09.34.2.43a.64.64,0,0,0,.45,0,.49.49,0,0,1-.44.13c-.29,0-.41.16-.41-.11A1.74,1.74,0,0,1,21.16,9.52Z" transform="translate(-0.92 -1.4)"/>
        <path class="cls-1" d="M20.23,13.31a1.69,1.69,0,0,1-1.08-.38h0a.09.09,0,0,1,0-.11.09.09,0,0,1,.11,0l0,0a.75.75,0,0,0,.44.27,1.29,1.29,0,0,0,.51.05h0a.09.09,0,0,1,.1.08.09.09,0,0,1-.07.11Z" transform="translate(-0.92 -1.4)"/>
        <path class="cls-1" d="M20.17,12.75s.1,0,.18,0a.17.17,0,0,1,.13,0,.6.6,0,0,1,.08.08.08.08,0,0,1,0,.1.08.08,0,0,1-.1,0h0a.18.18,0,0,0-.05-.07s0,0,0,0-.12,0-.2,0,0,0,0,0A0,0,0,0,1,20.17,12.75Z" transform="translate(-0.92 -1.4)"/>
        <path class="cls-1" d="M20.09,13.86a.55.55,0,0,1-.61-.11.05.05,0,0,1,0-.08.08.08,0,0,1,.08,0,.43.43,0,0,0,.46,0,.09.09,0,0,1,.13,0,.11.11,0,0,1,0,.13Z" transform="translate(-0.92 -1.4)"/>
        <path class="cls-1" d="M20.33,11.75a2.06,2.06,0,0,1,.26,0h.07l.06,0a.11.11,0,0,1,.06.11c-.1.14-.14.06-.16.08l-.08,0a.08.08,0,0,1-.06-.1.09.09,0,0,1,.1-.06h.07s0,0,0,.05,0,0,0,0h-.25s-.05,0-.06,0A.06.06,0,0,1,20.33,11.75Z" transform="translate(-0.92 -1.4)"/>
        <path class="cls-1" d="M19.8,11.54c0,.18.1.4.3.37a0,0,0,0,1,0,.08h0a.39.39,0,0,1-.36-.1c-.06,0-.06-.12-.07-.18a.55.55,0,0,1,0-.18h0a.05.05,0,0,1,.07,0S19.8,11.52,19.8,11.54Z" transform="translate(-0.92 -1.4)"/>
        <path class="cls-2" d="M21.8,8.75A2.6,2.6,0,0,0,21,9.91a.57.57,0,0,0,.15.16" transform="translate(-0.92 -1.4)"/>
        <path class="cls-1" d="M18.83,15.83l.25,3a.11.11,0,0,1-.1.13.11.11,0,0,1-.13-.11l-.25-3a.11.11,0,0,1,.1-.13.12.12,0,0,1,.13.11Z" transform="translate(-0.92 -1.4)"/>
        <path class="cls-1" d="M10.69,19.67c.06-2.09.1-4.16.06-6.23a34.46,34.46,0,0,1-.22-6.27A6.64,6.64,0,0,1,14,2.06a6.42,6.42,0,0,1,3.1-.66A3.9,3.9,0,0,1,20,2.5a.14.14,0,0,1,0,.18.13.13,0,0,1-.18,0h0a3.62,3.62,0,0,0-2.75-1,6.08,6.08,0,0,0-3,.65,6.27,6.27,0,0,0-3.22,4.9,37.19,37.19,0,0,0,.28,6.21,59.25,59.25,0,0,1-.2,6.26.13.13,0,0,1-.13.13A.13.13,0,0,1,10.69,19.67Z" transform="translate(-0.92 -1.4)"/>
        <path class="cls-1" d="M20,5a2.87,2.87,0,0,0,.25-1.15,1.91,1.91,0,0,0-.36-1.07h0a.14.14,0,0,1,0-.18.12.12,0,0,1,.1,0A3,3,0,0,1,22.37,5a4.47,4.47,0,0,1-1,3.38C20.73,9.41,19.67,10,19,11a7.21,7.21,0,0,0-1.29,3.16,28.51,28.51,0,0,0-.23,3.48,27.06,27.06,0,0,0,.13,3.48c.1,1.16.3,2.31.39,3.48a3.25,3.25,0,0,1,0,.93.85.85,0,0,1-.28.43.42.42,0,0,1-.28.15.5.5,0,0,1-.3-.14,3.93,3.93,0,0,1-.85-1.58h0a7.3,7.3,0,0,1,1,1.75,1.86,1.86,0,0,1,.1.55.61.61,0,0,1-.34.63,1.57,1.57,0,0,1-.59.09,1.21,1.21,0,0,1-.58-.19,4,4,0,0,1-1.17-1.7A12.61,12.61,0,0,1,14,23.61h0c.21.67.37,1.36.57,2a6.32,6.32,0,0,0,.9,1.82h0v0a.26.26,0,0,1-.06.36l-.07,0a3.47,3.47,0,0,1-2,.14,1.87,1.87,0,0,1-.87-.52A2.64,2.64,0,0,1,12,26.6a25.28,25.28,0,0,1-.86-3.69.17.17,0,0,1,.34-.07l.38,1.85a13.72,13.72,0,0,0,.41,1.82,2.56,2.56,0,0,0,.4.79,1.24,1.24,0,0,0,.74.41,2.73,2.73,0,0,0,1.75-.23l0,.18h0a6,6,0,0,1-.8-2c-.16-.69-.23-1.38-.33-2.08h0c.36.56.62,1.16.92,1.74a4.26,4.26,0,0,0,1.13,1.52,1,1,0,0,0,.84.06c.2-.06.16-.47.08-.75a15.73,15.73,0,0,0-.69-1.84h0c.42.42.67,1,1.05,1.35,0,0,.1.07.09.06s0,0,.08-.07a.54.54,0,0,0,.2-.28,3.25,3.25,0,0,0,0-.83c-.08-1.15-.21-2.32-.33-3.48a22.93,22.93,0,0,1-.16-3.52,29.83,29.83,0,0,1,.23-3.51,7.49,7.49,0,0,1,1.34-3.26c.69-1,1.76-1.6,2.39-2.55a4.2,4.2,0,0,0,.91-3.18A2.71,2.71,0,0,0,20,2.8l.11-.22a2.43,2.43,0,0,1,.16,2.49A.13.13,0,0,1,20,5Z" transform="translate(-0.92 -1.4)"/>
        <path class="cls-1" d="M20,2.58a2.05,2.05,0,0,1,1,1.56A5.75,5.75,0,0,1,20.91,6a4.78,4.78,0,0,1-.76,1.69A4.21,4.21,0,0,1,18.83,9a5.18,5.18,0,0,0,1.86-3,5.58,5.58,0,0,0,.13-1.77,2,2,0,0,0-.88-1.43h0a.1.1,0,0,1,0-.13A.1.1,0,0,1,20,2.58Z" transform="translate(-0.92 -1.4)"/>
        <path class="cls-1" d="M19.35,2.72a11.18,11.18,0,0,1-2.13.58,4.62,4.62,0,0,0-1.07.07,2.32,2.32,0,0,0-.87.59A6.71,6.71,0,0,0,14,5.71a7.88,7.88,0,0,0-.75,2.05,5.8,5.8,0,0,1,.6-2.12A7.19,7.19,0,0,1,15.1,3.78a2.64,2.64,0,0,1,1-.62,5.44,5.44,0,0,1,1.13,0,3.47,3.47,0,0,0,1.05-.19C18.62,2.85,19,2.78,19.35,2.72Z" transform="translate(-0.92 -1.4)"/>
        <path class="cls-1" d="M19.87,2.62a10.49,10.49,0,0,1-1.4-.2c-.23,0-.46-.12-.68-.19a3.61,3.61,0,0,0-.67-.08,5.25,5.25,0,0,0-1.37.11,2.77,2.77,0,0,0-1.26.53,2.57,2.57,0,0,1,1.22-.72,5.61,5.61,0,0,1,1.42-.13,3.61,3.61,0,0,1,.72.08c.23.07.44.14.66.19a10.73,10.73,0,0,0,1.36.23h0a.1.1,0,0,1,.09.1A.09.09,0,0,1,19.87,2.62Z" transform="translate(-0.92 -1.4)"/>
        <path class="cls-1" d="M12.33,16.93c.11-1,.22-1.91.28-2.86a9.2,9.2,0,0,0-.16-2.83,12.72,12.72,0,0,1-.76-2.78,4.52,4.52,0,0,1,.5-2.8,4.68,4.68,0,0,0-.37,2.78,12.78,12.78,0,0,0,.82,2.73,7.75,7.75,0,0,1,.18,2.91A18.46,18.46,0,0,1,12.33,16.93Z" transform="translate(-0.92 -1.4)"/>
        <path class="cls-1" d="M14,26.94a7.17,7.17,0,0,0-.49-1.34c-.17-.45-.36-.88-.53-1.34a4.94,4.94,0,0,1-.31-2.87.11.11,0,0,1,.13-.07.09.09,0,0,1,.07.12,4.78,4.78,0,0,0,.33,2.74l.53,1.33A4.37,4.37,0,0,1,14,26.94Z" transform="translate(-0.92 -1.4)"/>
        <path class="cls-1" d="M16.56,13.19A8.85,8.85,0,0,1,17,9.8a5.72,5.72,0,0,1,1.76-2.88,4.47,4.47,0,0,0-1,1.37,11.48,11.48,0,0,0-.57,1.58c-.16.53-.25,1.09-.36,1.64S16.64,12.62,16.56,13.19Z" transform="translate(-0.92 -1.4)"/>
        <path class="cls-1" d="M13.81,15.11c-.07-1.64,0-3.24-.05-4.86.08.4.13.8.18,1.21A9.71,9.71,0,0,1,14,12.67c0,.81,0,1.62,0,2.41h0a.12.12,0,0,1-.12.13A.13.13,0,0,1,13.81,15.11Z" transform="translate(-0.92 -1.4)"/>
        <path class="cls-1" d="M8.34,21.47c.35-.49.27-1.19.68-1.76a.09.09,0,1,1,.15.11h0c-.37.48-.31,1.19-.69,1.74a.1.1,0,0,1-.12,0,.07.07,0,0,1,0-.11Z" transform="translate(-0.92 -1.4)"/>
        <path class="cls-1" d="M20.9,22.26a3.89,3.89,0,0,1,.84,1.91,7,7,0,0,1,0,2.1,17.24,17.24,0,0,0-.34,4h0a.11.11,0,0,1-.11.13.12.12,0,0,1-.14-.1,9.13,9.13,0,0,1,0-2.09c.06-.69.18-1.36.27-2a6.64,6.64,0,0,0,0-2,7.48,7.48,0,0,0-.65-1.88.1.1,0,0,1,.05-.15.11.11,0,0,1,.13,0Z" transform="translate(-0.92 -1.4)"/>
        <path class="cls-1" d="M19.57,16l.17,1.68.07.85a7.87,7.87,0,0,1,0,.84.09.09,0,0,1-.09.08.1.1,0,0,1-.08-.07,5.93,5.93,0,0,1-.12-.83l-.1-.84L19.3,16h0a.14.14,0,1,1,.27,0Z" transform="translate(-0.92 -1.4)"/>
        <path class="cls-3" d="M10.82,19.68a1.24,1.24,0,0,1-.69-1.18c0-.7.14-2.33.13-3.72" transform="translate(-0.92 -1.4)"/>
        <path class="cls-1" d="M8.66,21.24c.07-.54.22-1,.31-1.58s.15-1.08.22-1.62L9.4,16.4a15,15,0,0,0,.14-1.62h0a.12.12,0,0,1,.12-.13.13.13,0,0,1,.14.12h0a14.86,14.86,0,0,1-.14,1.66c-.07.55-.08,1.1-.13,1.65s-.08,1.09-.15,1.65a2.59,2.59,0,0,1-.57,1.58h0a.08.08,0,0,1-.12,0A.06.06,0,0,1,8.66,21.24Z" transform="translate(-0.92 -1.4)"/>
        <path class="cls-1" d="M15,19.4a15.88,15.88,0,0,0,.24,2.28A5.71,5.71,0,0,0,16,23.83a5.66,5.66,0,0,1-.86-2.13,14.73,14.73,0,0,1-.35-2.29.11.11,0,0,1,.1-.12.1.1,0,0,1,.11.1Z" transform="translate(-0.92 -1.4)"/>
        <polygon class="cls-4" points="15.59 15.76 16.83 16.81 17.75 14.26 16.9 13.03 15.73 11.82 15.59 15.76"/>
      </g>
      <path class="cls-4" d="M17.89,17.47l.84.45,1-.82.46.53-.11,1.22L21,20.19l-.64.44-.84-.44s-.69-.78-.7-.82S17.52,18,17.52,18Z" transform="translate(-0.92 -1.4)"/>
      <path class="cls-1" d="M2.92,25.52a3.55,3.55,0,0,1,1.79-1.79,15.25,15.25,0,0,0,2-1.29l4-2.9c.14-.09.2-.1.24-.13a1.26,1.26,0,0,0,.16-.2l.36-.5a8.77,8.77,0,0,0,.66-1c.39-.71.86-1.41,1.3-2.12l.32-.5c.09-.08,0-.35.3-.58s.75-.38,1.09-.6l.22-.16a1.7,1.7,0,0,1,.24-.22,3.51,3.51,0,0,1,.53-.36.52.52,0,0,1,.15-.07.31.31,0,0,1,.23,0,1,1,0,0,1,.29.22l.42.48a.1.1,0,0,1-.15.13l0,0-.39-.43a.69.69,0,0,0-.21-.16c-.05,0-.11,0-.21.06a3,3,0,0,0-.48.34,2.09,2.09,0,0,0-.22.2,1.1,1.1,0,0,1-.25.2c-.35.23-.74.42-1.06.61-.12.08-.1.32-.24.53s-.22.35-.33.52c-.42.7-.87,1.37-1.26,2.09a10.15,10.15,0,0,1-.66,1l-.36.5a1.6,1.6,0,0,1-.21.26c-.1.08-.22.11-.28.16L6.94,22.72a12.55,12.55,0,0,1-2.09,1.33A3.78,3.78,0,0,0,3.1,25.6a.1.1,0,0,1-.18-.08Z" transform="translate(-0.92 -1.4)"/>
      <path class="cls-1" d="M14.29,15.53a.66.66,0,0,1,.29-.64l.62-.3c.41-.21.84-.36,1.27-.53l.33-.12c.1,0,.18-.08.31-.12a.39.39,0,0,1,.43.06l.24.25a5.57,5.57,0,0,1,.46.51l.22.27c.05.09.18.17.13.41,0,0,0,.06-.08.06a.1.1,0,0,1-.06-.05l0-.1a.59.59,0,0,0-.12-.19l-.22-.26c-.14-.17-.29-.33-.45-.5L17.38,14s-.11,0-.2,0-.21.1-.33.13l-.31.12c-.43.15-.84.32-1.26.49l-.63.25a.61.61,0,0,0-.3.52,0,0,0,1,1-.06,0Z" transform="translate(-0.92 -1.4)"/>
      <polygon class="cls-5" points="15.8 14.59 16.41 14.32 16.63 14.7 15.8 14.9 15.8 14.59"/>
      <path class="cls-1" d="M14.91,15.67c.4-.22.81-.41,1.21-.64s.78-.43,1.22-.64a.45.45,0,0,1,.41,0,3,3,0,0,1,.26.27l.46.49.24.26a.46.46,0,0,1,.11.4,6.37,6.37,0,0,1-.22.66.1.1,0,0,1-.12.07.1.1,0,0,1-.07-.13h0c.07-.21.18-.46.22-.63a.31.31,0,0,0-.06-.24l-.23-.25-.47-.51c-.07-.07-.18-.2-.22-.23a.3.3,0,0,0-.24,0c-.39.19-.81.42-1.21.63a11,11,0,0,1-1.26.56s0,0,0,0a0,0,0,0,1,0-.05Z" transform="translate(-0.92 -1.4)"/>
      <line class="cls-6" x1="16.98" y1="14.8" x2="17.04" y2="14.55"/>
      <path class="cls-5" d="M18.09,17.1l.62,1-.12.25v.84s-.77-.79-1.14-1.23a1.81,1.81,0,0,1-.42-.7l.53-.13Z" transform="translate(-0.92 -1.4)"/>
      <path class="cls-1" d="M18.25,16a.46.46,0,0,1-.41-.06,1.26,1.26,0,0,1-.31-.26h0l.11,0-.88.39.06-.07-.06.29a.09.09,0,0,1-.11.08.1.1,0,0,1-.08-.12l.06-.29a.08.08,0,0,1,.05-.07h0c.28-.13.57-.27.89-.4h0a.07.07,0,0,1,.1,0h0c.11.17.31.38.52.34h0a.07.07,0,0,1,.06,0A.05.05,0,0,1,18.25,16Z" transform="translate(-0.92 -1.4)"/>
      <path class="cls-1" d="M16.21,16.4a5.35,5.35,0,0,1,1.1-.33,1,1,0,0,1,.61.07c.18.06.35.09.56.18a.39.39,0,0,1,.22.28c0,.15,0,.09.12.21a.3.3,0,0,1,0,.39.43.43,0,0,1-.32.16c-.14,0-.26-.12-.3-.13a.49.49,0,0,0-.23,0h-.55l-.63.2h0l.05,0a2.37,2.37,0,0,1-.25.29,2.62,2.62,0,0,0-.21.23.71.71,0,0,1-.15.15l-.11.08-.05,0a.61.61,0,0,0-.16.21v0l0,.07h0l0,0A8.34,8.34,0,0,1,14,20.31L12.09,22a14.26,14.26,0,0,0-1.6,2c-.48.71-1,1.38-1.56,2.06C7.87,27.43,7,28.93,5.84,30.24a3.57,3.57,0,0,1-2.44,1,3.82,3.82,0,0,1-1.34-.13,1.82,1.82,0,0,1-.66-.32,1.49,1.49,0,0,1-.25-.69,7.31,7.31,0,0,1-.07-1.32,6.62,6.62,0,0,0-.15-1.26,4.25,4.25,0,0,1,.79-2.51,16.66,16.66,0,0,0,2.19-4.61A11.49,11.49,0,0,1,4.68,18,7,7,0,0,1,6,15.69a3.89,3.89,0,0,1,2.41-1A22.4,22.4,0,0,1,11,14.62a.09.09,0,0,1,.1.1.09.09,0,0,1-.08.09h0c-1.68.27-3.55,0-4.71,1.16a6.82,6.82,0,0,0-1.19,2.14,11.89,11.89,0,0,0-.74,2.42,17.16,17.16,0,0,1-2.22,4.74,3.78,3.78,0,0,0-.72,2.25,3.47,3.47,0,0,0,.1.59,2.22,2.22,0,0,1,.06.72,6.2,6.2,0,0,0,.06,1.22,1.24,1.24,0,0,0,.14.45l.06,0a.45.45,0,0,0,.12.06l.26.1a3.32,3.32,0,0,0,1.18.1,3.2,3.2,0,0,0,2.14-.89c1.13-1.2,2-2.72,3.12-4.06.55-.68,1.1-1.32,1.6-2a14.48,14.48,0,0,1,1.67-2l1.93-1.71a8.7,8.7,0,0,0,1.77-1.82v0l0-.06h0a.93.93,0,0,1,.25-.32c.08-.06.12-.06.15-.09l.11-.12a3.43,3.43,0,0,1,.27-.27l.28-.2h.05c.21-.05.41-.12.62-.19H18a.68.68,0,0,1,.33.05c.12.08.14.11.21.11a.29.29,0,0,0,.17-.09c0-.05,0-.07,0-.14a.84.84,0,0,1-.1-.12c0-.09,0-.12,0-.16a.19.19,0,0,0-.12-.15c-.13-.06-.34-.11-.53-.17a.7.7,0,0,0-.51-.06,10.91,10.91,0,0,1-1.12.19,0,0,0,0,1,0,0S16.19,16.41,16.21,16.4Z" transform="translate(-0.92 -1.4)"/>
      <path class="cls-7" d="M19.89,2.58c-1.05.59-5,1.46-5.4,7.84a6,6,0,0,0,.67,3.64l.6-.5.3-.21a4.71,4.71,0,0,1-.67-2.65c0-6.54,4.35-7.53,4.5-8.12Z" transform="translate(-0.92 -1.4)"/>
      <path class="cls-6" d="M17.59,16.15a1.11,1.11,0,0,1-.19-.42" transform="translate(-0.92 -1.4)"/>
      <path class="cls-6" d="M18.09,17.1a3.46,3.46,0,0,0,.64.82" transform="translate(-0.92 -1.4)"/>
      <path class="cls-6" d="M18.59,19.16C17.16,17.8,17,17.23,17,17.23" transform="translate(-0.92 -1.4)"/>
      <path class="cls-6" d="M19.17,19.54s-.53.21-.57-.5-.13-.74.19-1.09.69-.79,1-.79.48.22.79.47a2.93,2.93,0,0,0,.69.41,1,1,0,0,1,.3.25" transform="translate(-0.92 -1.4)"/>
      <path class="cls-6" d="M19.86,20.19s0,.2-.37,0-.48-.25-.24-.85.55-1.29,1-1.27a3.61,3.61,0,0,1,.88.17,5,5,0,0,0,1,.13.67.67,0,0,1,.6.42,1.31,1.31,0,0,1,0,.37" transform="translate(-0.92 -1.4)"/>
      <path class="cls-1" d="M20.24,20.66c0,.07-.06,0-.08,0L20,20.56a.64.64,0,0,1-.21-.22.58.58,0,0,1,0-.61,3.85,3.85,0,0,1,.68-.87,2.53,2.53,0,0,1,.42-.37.57.57,0,0,1,.64,0c.31.18.62.4.9.53a1.48,1.48,0,0,1,.54.26,1.62,1.62,0,0,1,.27.52.79.79,0,0,0,.11.19,1.5,1.5,0,0,1,.18.24,1.46,1.46,0,0,1,.21.55,1.26,1.26,0,0,0,.29.91,2.24,2.24,0,0,1,.55,1,4.52,4.52,0,0,0,1.27,1.63l1.57,1.46.78.73a3.31,3.31,0,0,1,.64.95,6,6,0,0,1,.5,2.14h0a.1.1,0,0,1-.1.1.1.1,0,0,1-.1-.08,7.53,7.53,0,0,0-.6-2,3.14,3.14,0,0,0-.57-.86L27.25,26l-1.56-1.49a4.67,4.67,0,0,1-1.31-1.72,1.85,1.85,0,0,0-.49-.9,1.49,1.49,0,0,1-.34-1.05,1.3,1.3,0,0,0-.18-.46,1,1,0,0,0-.15-.2,1.43,1.43,0,0,1-.15-.26,1.45,1.45,0,0,0-.22-.45,1.39,1.39,0,0,0-.44-.21c-.35-.16-.63-.38-.94-.55s-.54.11-.79.35c-.43.48-1.2,1.17-.26,1.58a.1.1,0,1,1-.18.07Z" transform="translate(-0.92 -1.4)"/>
      <path class="cls-1" d="M23,20.21a1.68,1.68,0,0,0-.59-.34,1.1,1.1,0,0,0-.65.12,2.68,2.68,0,0,1-.34.13,2.22,2.22,0,0,0-.33.09,4.79,4.79,0,0,0-.58.38c-.18.12-.43.32-.3.36s.37.08.57,0a2.22,2.22,0,0,1,.71-.2,5.76,5.76,0,0,1,.72,0h0l.4.15s0,0,0,0,0,0,0,0l-.43,0h0c-.26,0-.49,0-.7,0a2.26,2.26,0,0,0-.66.19.78.78,0,0,1-.79,0,.27.27,0,0,1-.09-.26.33.33,0,0,1,.12-.19,2,2,0,0,1,.3-.23,3.45,3.45,0,0,1,.62-.39c.26-.1.45-.11.68-.21a1.17,1.17,0,0,1,.74-.08,1.36,1.36,0,0,1,.6.42,0,0,0,0,1,0,0Z" transform="translate(-0.92 -1.4)"/>
      <path class="cls-6" d="M22.27,20.85a1.13,1.13,0,0,0,.21.4,1,1,0,0,0,.34.21" transform="translate(-0.92 -1.4)"/>
      <line class="cls-6" x1="20.05" y1="18.79" x2="20.44" y2="18.28"/>
      <path class="cls-6" d="M21.28,19.78s.22,0,.57.08" transform="translate(-0.92 -1.4)"/>
      <path class="cls-1" d="M22.34,25a2.34,2.34,0,0,1-.56-.66l-.49-.71h0a.1.1,0,0,1,0-.14.11.11,0,0,1,.14,0l1.05,1.36a.1.1,0,0,1,0,.14.09.09,0,0,1-.12,0Z" transform="translate(-0.92 -1.4)"/>
      <g>
        <path class="cls-5" d="M21.07,21s1.18,1,1.15,1.94c0,1.19-.21,2.4.56,3.2s2-.16,1.68-.16c-1,0-1.14-1.55-1.24-2.62a2.94,2.94,0,0,0-1.33-2.5,4.16,4.16,0,0,0-.44,0A3,3,0,0,0,21.07,21Z" transform="translate(-0.92 -1.4)"/>
        <path class="cls-1" d="M21.17,21c0-.14,0,0,0-.05l0,0,.08.08.16.16c.1.1.19.21.29.33a3,3,0,0,1,.45.76,2,2,0,0,1,.11.89l0,.86a3.19,3.19,0,0,0,.3,1.63,1.38,1.38,0,0,0,.54.58,1.07,1.07,0,0,0,.77.05,1.49,1.49,0,0,0,.36-.17.87.87,0,0,0,.14-.12s0-.05,0,0,0,0,0,0a1,1,0,0,1-.77-.5,4.3,4.3,0,0,1-.48-1.69,6.49,6.49,0,0,0-.29-1.67,2.59,2.59,0,0,0-1-1.27h0l.06,0-.4,0A1.06,1.06,0,0,1,21.17,21ZM21,21a2,2,0,0,1,.48-.2l.43,0a.06.06,0,0,1,.06,0h0a2.72,2.72,0,0,1,1.16,1.34,6.64,6.64,0,0,1,.34,1.72,4.11,4.11,0,0,0,.45,1.57.66.66,0,0,0,.53.36l.1,0s.13,0,.18.17a.33.33,0,0,1-.08.28,1.12,1.12,0,0,1-.21.18,2,2,0,0,1-.44.21,1.34,1.34,0,0,1-1-.07,1.63,1.63,0,0,1-.68-.7A3.67,3.67,0,0,1,22,24.06l.05-.87a1.68,1.68,0,0,0-.08-.78,3.28,3.28,0,0,0-.39-.71,2.91,2.91,0,0,0-.26-.33l-.14-.16-.08-.08,0,0S21,21.13,21,21Z" transform="translate(-0.92 -1.4)"/>
      </g>
      <path class="cls-1" d="M8.51,26.54A2.62,2.62,0,0,0,8.64,28l.48,1.43c.16.48.32,1,.46,1.46a5.9,5.9,0,0,1,.26,1.52.12.12,0,0,1-.13.13.12.12,0,0,1-.13-.12h0A7.35,7.35,0,0,0,9.26,31c-.14-.48-.31-1-.48-1.43a11.32,11.32,0,0,1-.47-1.46,2.33,2.33,0,0,1,0-1.62.08.08,0,0,1,.11,0,.1.1,0,0,1,0,.11Z" transform="translate(-0.92 -1.4)"/>
    </g>
    <path class="cls-8" d="M25.75,22.84a4,4,0,0,1-.11-1c0-2.14,1.61-4.07,4.5-4.07s4.46,1.8,4.46,3.94a4.28,4.28,0,0,1-2.37,3.74L30,26.8a2,2,0,0,0-.81.82h5.55v2.44H25.56a5.48,5.48,0,0,1,2.84-5.29l2-1.15c.94-.56,1.31-1.06,1.31-1.85a1.44,1.44,0,0,0-1.61-1.43,1.61,1.61,0,0,0-1.68,1.78,2.37,2.37,0,0,0,.11.74Z" transform="translate(-0.92 -1.4)"/>
  </g>
</svg>
