<svg xmlns="http://www.w3.org/2000/svg" viewBox="0 0 36.52 31.88">
  <defs>
    <style>
      .cls-1 {
        fill: #211261;
      }

      .cls-2, .cls-4, .cls-7 {
        fill: none;
      }

      .cls-2, .cls-4, .cls-5, .cls-7 {
        stroke: #211261;
        stroke-linecap: round;
        stroke-linejoin: round;
      }

      .cls-2 {
        stroke-width: 0.23px;
      }

      .cls-3, .cls-5 {
        fill: #e7e3ed;
      }

      .cls-4, .cls-5 {
        stroke-width: 0.09px;
      }

      .cls-6 {
        fill: #b784ca;
      }

      .cls-7 {
        stroke-width: 0.24px;
      }

      .cls-8 {
        fill: #f789be;
      }
    </style>
  </defs>
  <g id="Artwork">
    <g>
      <g>
        <path class="cls-1" d="M28.72,29.47c0-1.1,0-2.21-.11-3.29a6.94,6.94,0,0,0-.82-3.1A4.1,4.1,0,0,0,25,21.73a4.18,4.18,0,0,1-2.77-1.8.11.11,0,0,1,0-.15.12.12,0,0,1,.16,0h0A4,4,0,0,0,25,21.47a9.82,9.82,0,0,1,1.62.4,2.85,2.85,0,0,1,1.38,1,4.39,4.39,0,0,1,.62,1.59,11.72,11.72,0,0,1,.24,1.65c.09,1.11.05,2.21.06,3.31a.12.12,0,0,1-.23,0Z" transform="translate(-0.59 -1.02)"/>
        <path class="cls-1" d="M22,19.53c.22.09.35.27.52.32a.72.72,0,0,0,.51.07.65.65,0,0,0,.38-.35c.1-.17.14-.34.25-.56a.12.12,0,0,1,.05-.05c.19-.05.27,0,.33-.08a.52.52,0,0,0,.14-.25.15.15,0,0,0,0-.11l-.05-.08a.2.2,0,0,1,0-.19,2.42,2.42,0,0,1,.18-.36h0a.11.11,0,0,1,.09-.05h0a.34.34,0,0,0,.3-.21c0-.1,0,0,0-.14a.44.44,0,0,1-.07-.32.49.49,0,0,1,.43-.42.58.58,0,0,0,.38-.19c.16-.18-.15-.54-.24-.87a3.1,3.1,0,0,1-.1-.53,1.06,1.06,0,0,1,0-.3,2,2,0,0,1,.11-.26.1.1,0,0,1,.14,0,.1.1,0,0,1,.06.14h0v0a.68.68,0,0,0-.1.43,2.4,2.4,0,0,0,.09.48,4.73,4.73,0,0,0,.2.47.56.56,0,0,1,0,.6A.78.78,0,0,1,25,17c-.15,0-.27.08-.3.22a.28.28,0,0,0,0,.22.36.36,0,0,1,.08.13.21.21,0,0,1,0,.16.53.53,0,0,1-.47.36l.1,0h0a1.2,1.2,0,0,0-.18.31c-.08,0,.13.17.09.32a.69.69,0,0,1-.19.39c-.12.13-.33.1-.38.14l.05-.05a4.69,4.69,0,0,1-.22.57.91.91,0,0,1-.51.47,1,1,0,0,1-.7-.05,1.06,1.06,0,0,1-.29-.2l-.21-.18,0,0a.1.1,0,0,1,0-.15A.1.1,0,0,1,22,19.53Z" transform="translate(-0.59 -1.02)"/>
        <path class="cls-2" d="M26.19,12.45a4.89,4.89,0,0,1-.07.68,2,2,0,0,1-.51.95" transform="translate(-0.59 -1.02)"/>
        <path class="cls-1" d="M25.33,14.5a3.94,3.94,0,0,1,.35-.83,1.63,1.63,0,0,1,.5-.39.41.41,0,0,1,0,.45C26.1,13.93,25.7,13.89,25.33,14.5Z" transform="translate(-0.59 -1.02)"/>
        <path class="cls-1" d="M25.28,14.62s-.06.21.27.39a.83.83,0,0,0,.56.12,1.53,1.53,0,0,1-.64.08c-.36,0-.35-.25-.35-.25Z" transform="translate(-0.59 -1.02)"/>
        <path class="cls-1" d="M25.34,14.51s-.09.33.18.41a.62.62,0,0,0,.44,0,.5.5,0,0,1-.42.13c-.29,0-.4.15-.4-.12A1.33,1.33,0,0,1,25.34,14.51Z" transform="translate(-0.59 -1.02)"/>
        <path class="cls-1" d="M24.33,18a3,3,0,0,1-1.22-.57h0a.07.07,0,0,1,0-.11.08.08,0,0,1,.1,0h0a1.76,1.76,0,0,0,.54.36,2.1,2.1,0,0,0,.61.15.09.09,0,1,1,0,.18Z" transform="translate(-0.59 -1.02)"/>
        <path class="cls-1" d="M24.19,17.47a1.38,1.38,0,0,0,.25,0,.22.22,0,0,1,.16,0l.12,0h0a.06.06,0,0,1,0,.09.08.08,0,0,1-.09,0h0l-.13-.07c-.05,0,0,0-.09,0a.84.84,0,0,1-.28,0s0,0,0,0,0,0,0,0Z" transform="translate(-0.59 -1.02)"/>
        <path class="cls-1" d="M24.13,18.47a1.26,1.26,0,0,1-.72-.35,1.28,1.28,0,0,1-.34-.7.05.05,0,0,1,.1,0,1.16,1.16,0,0,0,.34.62,1.08,1.08,0,0,0,.63.27h0a.1.1,0,0,1,.09.1.11.11,0,0,1-.1.08Z" transform="translate(-0.59 -1.02)"/>
        <path class="cls-1" d="M24.52,16.65a1,1,0,0,1,.25,0,.09.09,0,0,1,.07,0h.06a.11.11,0,0,1,.05.11c-.09.14-.13.06-.15.08l-.07,0a.08.08,0,0,1,0-.15h.07s0,0,0,.05,0,0,0,0a1.92,1.92,0,0,0-.24,0,.05.05,0,0,1-.05-.05A0,0,0,0,1,24.52,16.65Z" transform="translate(-0.59 -1.02)"/>
        <path class="cls-1" d="M24,16.44a.3.3,0,0,0,.29.36s0,0,.05,0,0,0,0,0h0a.39.39,0,0,1-.35-.09c-.05,0-.05-.12-.06-.17a.52.52,0,0,1,0-.18h0a0,0,0,0,1,.06,0S24,16.42,24,16.44Z" transform="translate(-0.59 -1.02)"/>
        <path class="cls-2" d="M26,13.77a2.56,2.56,0,0,0-.78,1.11.57.57,0,0,0,.15.16" transform="translate(-0.59 -1.02)"/>
        <path class="cls-1" d="M6.06,17.94a5.28,5.28,0,0,0,.79-1.14c.23-.41.48-.82.73-1.22.51-.8,1-1.59,1.57-2.37s1.1-1.54,1.68-2.3a4.91,4.91,0,0,1,1-1.05,3.36,3.36,0,0,1,1.39-.46s.11,0,.11.09a.1.1,0,0,1-.08.12,3.11,3.11,0,0,0-1.28.45,5,5,0,0,0-.91,1c-.57.76-1.11,1.53-1.64,2.31s-1,1.59-1.54,2.38c-.25.39-.51.78-.74,1.19a2.17,2.17,0,0,1-1,1h0s0,0,0,0A0,0,0,0,1,6.06,17.94Z" transform="translate(-0.59 -1.02)"/>
        <path class="cls-1" d="M15.94,24.93a7.63,7.63,0,0,1-.67-.49,1.42,1.42,0,0,1-.55-.73.93.93,0,0,1,0-.26l0-.2.05-.39.11-.79h0A.12.12,0,0,1,15,22a.12.12,0,0,1,.1.13l-.08.8c0,.25-.06.58-.07.77a1.36,1.36,0,0,0,.47.53,7.66,7.66,0,0,0,.66.45h0a.18.18,0,0,1,.06.24.18.18,0,0,1-.24.05Z" transform="translate(-0.59 -1.02)"/>
        <path class="cls-1" d="M23.72,21.08a2.62,2.62,0,0,1,.4,1.08,7.1,7.1,0,0,1,0,1.13,12.89,12.89,0,0,1-.24,2.23.11.11,0,0,1-.13.09.12.12,0,0,1-.09-.12v0c0-.36,0-.73.08-1.09s.07-.73.1-1.1a6.59,6.59,0,0,0,0-1.08,2.45,2.45,0,0,0-.35-1h0a.11.11,0,0,1,0-.16A.11.11,0,0,1,23.72,21.08Z" transform="translate(-0.59 -1.02)"/>
        <path class="cls-1" d="M24.13,21.21a2.61,2.61,0,0,1,.48,1.48l.05,1.49c0,1,0,2,.12,3,.07.48.17,1,.28,1.45a4.38,4.38,0,0,1-.21,3.05,2.6,2.6,0,0,1-.94,1.23h0a.11.11,0,0,1-.15,0,.13.13,0,0,1,0-.13,4.19,4.19,0,0,0,1-4.05c-.11-.49-.21-1-.28-1.48-.11-1-.08-2-.1-3s.13-2.07-.42-2.82v0a.11.11,0,0,1,0-.16A.12.12,0,0,1,24.13,21.21Z" transform="translate(-0.59 -1.02)"/>
        <path class="cls-1" d="M11.69,27.2c.07.91.15,1.83.26,2.75a13.79,13.79,0,0,1,.09,2.8h0a.11.11,0,0,1-.11.11.12.12,0,0,1-.11-.12A14.13,14.13,0,0,0,11.64,30c-.14-.92-.24-1.84-.32-2.76a.19.19,0,0,1,.17-.21.19.19,0,0,1,.2.17Z" transform="translate(-0.59 -1.02)"/>
        <path class="cls-1" d="M10.89,21.11a2.5,2.5,0,0,1,.62.55,1.64,1.64,0,0,1,.31.79,4.33,4.33,0,0,0,.59,1.47,2.8,2.8,0,0,1-.8-1.43,3.66,3.66,0,0,0-.72-1.38Z" transform="translate(-0.59 -1.02)"/>
        <path class="cls-1" d="M14.79,21.47a13.94,13.94,0,0,1-.31,1.69,3.12,3.12,0,0,1-.31.83l-.43.73c-.29.49-.58,1-.92,1.44a4.62,4.62,0,0,1-1.3,1.15h0a.13.13,0,0,1-.19,0s0,0,0,0l-.41-1.69-.21-.85-.1-.42a1.94,1.94,0,0,1,0-.2.41.41,0,0,0-.09-.12,5.71,5.71,0,0,0-1.56-.62l-1.67-.5A13.74,13.74,0,0,1,4,21.41a16.76,16.76,0,0,1-2.9-2,1.38,1.38,0,0,1-.48-.79,2.54,2.54,0,0,1,0-.91A3.67,3.67,0,0,1,1.25,16c.84-.87,1.69-1.61,2.54-2.43A56,56,0,0,1,9.11,9.08a.12.12,0,0,1,.17,0,.12.12,0,0,1,0,.17A51.88,51.88,0,0,0,4,13.81c-.83.8-1.73,1.6-2.5,2.4a3.46,3.46,0,0,0-.57,1.54,2.72,2.72,0,0,0,0,.81,1.08,1.08,0,0,0,.4.64,16.32,16.32,0,0,0,2.84,1.93A13.44,13.44,0,0,0,7.33,22.5L9,23a5.85,5.85,0,0,1,1.69.69.85.85,0,0,1,.19.27c0,.09,0,.14.06.22l.1.43.21.84.42,1.7L11.34,27h0A4.33,4.33,0,0,0,12.55,26c.32-.43.63-.92.92-1.39l.43-.72a2.68,2.68,0,0,0,.3-.76,13.19,13.19,0,0,0,.32-1.64.13.13,0,0,1,.15-.12A.13.13,0,0,1,14.79,21.47Z" transform="translate(-0.59 -1.02)"/>
        <path class="cls-1" d="M13.23,19.18a9.74,9.74,0,0,0-1.63-.42c-.55-.11-1.12-.18-1.68-.34l-3.3-.85a.15.15,0,0,1-.11-.18.16.16,0,0,1,.18-.11l3.31.85a24.89,24.89,0,0,1,3.32.85.1.1,0,0,1,.06.14.1.1,0,0,1-.14.06Z" transform="translate(-0.59 -1.02)"/>
        <path class="cls-1" d="M23.77,19.08a.66.66,0,0,1-.26,0,.5.5,0,0,1-.2-.18,0,0,0,0,1,0-.06s0,0,.06,0a.37.37,0,0,0,.4.15.08.08,0,0,1,.08.07.07.07,0,0,1-.06.07s0,0,0,0Z" transform="translate(-0.59 -1.02)"/>
        <path class="cls-1" d="M18.51,30a9.06,9.06,0,0,0-.14-4.87,41.94,41.94,0,0,0-1.72-4.65,16,16,0,0,1-.74-2.38,11.39,11.39,0,0,1-.2-2.47,11.63,11.63,0,0,1,1-4.84,12,12,0,0,0-.89,4.84A11.67,11.67,0,0,0,16.06,18a16.45,16.45,0,0,0,.75,2.35A41.35,41.35,0,0,1,18.6,25,10.45,10.45,0,0,1,19,27.52,5.37,5.37,0,0,1,18.51,30Z" transform="translate(-0.59 -1.02)"/>
        <path class="cls-1" d="M23.87,7.77a4.24,4.24,0,0,0-2.16-1.48,4.25,4.25,0,0,0-2.66-.08,4.27,4.27,0,0,1,2.69,0,4.45,4.45,0,0,1,2.31,1.48.11.11,0,0,1,0,.16.1.1,0,0,1-.15,0h0Z" transform="translate(-0.59 -1.02)"/>
        <path class="cls-1" d="M23.93,7.58a2,2,0,0,1,0,2.59,11.74,11.74,0,0,1-1.74,2,7.58,7.58,0,0,0-1.52,2.08,5.88,5.88,0,0,0-.53,2.52,5.61,5.61,0,0,1,.44-2.56A7.46,7.46,0,0,1,22.05,12a11.67,11.67,0,0,0,1.7-2,2.92,2.92,0,0,0,.44-1.19,1.68,1.68,0,0,0-.29-1.12l-.06-.1a.06.06,0,0,1,0-.09A.08.08,0,0,1,23.93,7.58Z" transform="translate(-0.59 -1.02)"/>
        <path class="cls-1" d="M24.17,7.75a2.69,2.69,0,0,1,1.09.62,2.37,2.37,0,0,1,.63,1.11,3.66,3.66,0,0,1-.36,2.45,5.56,5.56,0,0,1-1.75,1.73,10.7,10.7,0,0,1-2.14,1.13,16.59,16.59,0,0,0,2.07-1.23,5.72,5.72,0,0,0,1.63-1.73,3.36,3.36,0,0,0,.33-2.3,2.3,2.3,0,0,0-1.55-1.61.08.08,0,0,1-.06-.11A.09.09,0,0,1,24.17,7.75Z" transform="translate(-0.59 -1.02)"/>
        <path class="cls-1" d="M23.89,7.75a3.22,3.22,0,0,0-1.44-1.5,4.91,4.91,0,0,0-2.06-.49,5.94,5.94,0,0,0-3.91,1.48A11.12,11.12,0,0,0,14,10.69a11.83,11.83,0,0,0-1,4.15A8.45,8.45,0,0,0,13.6,19c.55,1.33,1.37,2.54,2,3.89a10.21,10.21,0,0,1,.93,4.32,5.11,5.11,0,0,1-.4,2.2,2.57,2.57,0,0,1-1.65,1.47h0l0-.13c2.1,2.17,6,1.74,7.81-.53a5.6,5.6,0,0,0,1-1.92,8.29,8.29,0,0,0,.29-2.17,8.53,8.53,0,0,0-.9-4.27c-.31-.67-.63-1.34-.89-2.05a3.64,3.64,0,0,1-.18-2.26,4.82,4.82,0,0,1,1.1-2,7.92,7.92,0,0,1,1.77-1.38,4.92,4.92,0,0,0,1.39-1.62,4.74,4.74,0,0,0,.64-2,2.48,2.48,0,0,0-.68-1.93A3.07,3.07,0,0,0,24,7.79L24,7.6a2.12,2.12,0,0,1,1.14,1.45A1.59,1.59,0,0,1,25,10a2.51,2.51,0,0,1-.52.76,3.33,3.33,0,0,0,.4-.8A1.73,1.73,0,0,0,25,9.08a2.06,2.06,0,0,0-1.06-1.32.07.07,0,0,1,0-.1.09.09,0,0,1,.08,0A3.36,3.36,0,0,1,26,8.46a2.73,2.73,0,0,1,.81,2.11,5.23,5.23,0,0,1-2.12,3.91A7.71,7.71,0,0,0,23,15.81a4.53,4.53,0,0,0-1,1.85,3.4,3.4,0,0,0,.17,2.08c.24.69.56,1.36.87,2a9.27,9.27,0,0,1,.92,4.4,8.28,8.28,0,0,1-.29,2.25,6,6,0,0,1-1.07,2,5.71,5.71,0,0,1-4,2.07,4.8,4.8,0,0,1-2.31-.29A6,6,0,0,1,14.27,31a.22.22,0,0,1,0-.31.21.21,0,0,1,.12-.07h0a2.26,2.26,0,0,0,1.47-1.29,4.69,4.69,0,0,0,.37-2.08,9.8,9.8,0,0,0-.91-4.2c-.6-1.32-1.43-2.53-2-3.88A9.17,9.17,0,0,1,12.67,17a10.2,10.2,0,0,1-.08-2.21,12.27,12.27,0,0,1,1-4.29A11.23,11.23,0,0,1,16.24,7,6,6,0,0,1,20.4,5.43,5.33,5.33,0,0,1,22.58,6a3.36,3.36,0,0,1,1.47,1.69.09.09,0,0,1,0,.12.09.09,0,0,1-.12,0Z" transform="translate(-0.59 -1.02)"/>
        <g>
          <g>
            <path class="cls-3" d="M13.25,9.5a3,3,0,0,0,1.62-1.22l.85-.91-.06-.61h-.85l-1.46.41L12,7.62" transform="translate(-0.59 -1.02)"/>
            <path class="cls-1" d="M13.22,9.39a2.43,2.43,0,0,0,1.29-.87c.18-.22.38-.42.56-.62s.18-.21.27-.31.23-.17.19-.39h0l-.06.19.14-.62h0l.05,0h-.84l-1.41.39L12,7.66a0,0,0,0,1,0,0s0,0,0,0h0l1.39-.46,1.4-.4h.87a0,0,0,0,1,0,0h0l.14.6a.07.07,0,0,1,0,.06l0,0h0a5.48,5.48,0,0,1-.58.6,5.22,5.22,0,0,0-.55.61,2.89,2.89,0,0,1-.61.6,2.77,2.77,0,0,1-.79.35.12.12,0,0,1-.14-.08.1.1,0,0,1,.08-.13Z" transform="translate(-0.59 -1.02)"/>
          </g>
          <g>
            <path class="cls-3" d="M16.22,8.16c-.16,0-.57-.82-.57-.82s.31-.62.44-.67,2.21-1,3-1.37a8.82,8.82,0,0,1,1.63-.73,5.14,5.14,0,0,1,.62.88c.09.17.17.28-.12.43S16.38,8.18,16.22,8.16Z" transform="translate(-0.59 -1.02)"/>
            <path class="cls-1" d="M16.2,8.34c-.24-.09-.22-.17-.29-.25s-.1-.15-.15-.22a2.86,2.86,0,0,1-.22-.47h0a.12.12,0,0,1,0-.1l.2-.37c.09-.12.1-.23.3-.37l.74-.35,1.47-.68c.49-.23,1-.45,1.46-.69.24-.12.48-.25.74-.36.09,0,.08-.08.32,0a.6.6,0,0,1,.18.19,3.43,3.43,0,0,1,.24.33l.23.35.1.2a.31.31,0,0,1,0,.35,1.14,1.14,0,0,1-.39.24l-.37.18L19.25,7l-1.47.69L17,8l-.37.17-.19.08A1,1,0,0,1,16.2,8.34Zm0-.22c1-.38,2-.88,2.93-1.32l1.46-.7a3.83,3.83,0,0,0,.7-.37c.08-.07,0-.2-.08-.32L21,5.07a3.71,3.71,0,0,0-.23-.32.89.89,0,0,0-.13-.14.5.5,0,0,0-.15,0c-.24.1-.49.22-.73.34-.48.25-1,.47-1.46.7l-1.47.68-.74.34a2.88,2.88,0,0,0-.4.65V7.31h0c.07.15.15.3.23.44a1.91,1.91,0,0,0,.14.21A.47.47,0,0,0,16.23,8.12Z" transform="translate(-0.59 -1.02)"/>
          </g>
          <path class="cls-4" d="M16.17,6.93c.19.34.41.71.41.71" transform="translate(-0.59 -1.02)"/>
          <path class="cls-4" d="M17.79,5.92c.19.34.41.71.41.71" transform="translate(-0.59 -1.02)"/>
          <path class="cls-4" d="M18,6c.19.34.41.71.41.71" transform="translate(-0.59 -1.02)"/>
          <path class="cls-4" d="M19.1,5.67l.41.7" transform="translate(-0.59 -1.02)"/>
          <line class="cls-4" x1="20.07" y1="3.86" x2="20.36" y2="4.43"/>
          <line class="cls-4" x1="20.26" y1="3.95" x2="20.68" y2="4.65"/>
          <line class="cls-4" x1="15.32" y1="6.12" x2="15.74" y2="6.93"/>
          <line class="cls-4" x1="15.02" y1="5.8" x2="15.44" y2="6.61"/>
          <polygon class="cls-5" points="14.43 4.81 14.69 4.74 15.1 4.25 14.88 3.66 14.5 3.36 14.18 3.41 13.45 3.85 14.43 4.81"/>
          <g>
            <path class="cls-3" d="M17.11,4.84s3.27-1.48,3.32-1.47a.72.72,0,0,1,.1.25l.2.61L19,5.37l-3.37,1.3-.59.15-.19-1.06.25-.09.19-.09Z" transform="translate(-0.59 -1.02)"/>
            <path class="cls-1" d="M17.08,4.78l2.08-.92,1-.45.13-.05.09,0c.07,0,.07.06.08.07s.06.19.09.28l.18.54h0s0,0,0,0L19.07,5.4h0l-3.38,1.3h0l-.59.15h0s0,0-.05,0h0l-.19-1.06h0a.05.05,0,0,1,0,0l.24-.09h0Zm.09.21c-.66.25-1.32.52-2,.76h0l-.26,0,0,0h0l.19,1-.06,0h0l.58-.16h0L19,5.26h0l1.66-1.16-.05.17h0l-.23-.53-.1-.24s0,0,0,0l0,0,.07,0h.06l-.12.05-1,.43Z" transform="translate(-0.59 -1.02)"/>
          </g>
          <g>
            <path class="cls-3" d="M15.76,7.16s-.36.09-.48.14-.1-.47-.1-.47l.08-.29.28-.12.72-.21L20.35,4.3c.33-.14.29-.23.28-.31s-.06-.24,0-.28.07-.09.15,0,.31.72.38.89-.16.27-.16.27Z" transform="translate(-0.59 -1.02)"/>
            <path class="cls-1" d="M15.82,7.34l-.25,0-.29.07c-.27-.07-.19-.19-.22-.22a.86.86,0,0,1,0-.15,2.48,2.48,0,0,1,0-.27v0l.14-.28h0l0,0c0-.16,0-.22.06-.25s.16.12.2.1h0a4.21,4.21,0,0,0,.72-.18h0c.93-.46,1.88-.88,2.82-1.32.46-.22,1-.42,1.4-.67.12-.08.11-.11.09-.26s0-.13,0-.21a.1.1,0,0,1,.11-.08.29.29,0,0,1,.1.07,5.11,5.11,0,0,1,.43.68.7.7,0,0,1,.09.17.43.43,0,0,1-.09.34.87.87,0,0,1-.38.24l-.71.32-1.43.64Zm-.08-.24,2.85-1.24L20,5.24l.71-.31c.12-.06.25-.09.31-.17s0-.06,0-.1L21,4.48l-.33-.69s.05,0,0-.06a.46.46,0,0,0,.08.16.39.39,0,0,1,0,.27.55.55,0,0,1-.2.22c-.49.25-.95.44-1.42.67-.95.43-1.87.91-2.83,1.29h0l-.73.15h0a2.29,2.29,0,0,1-.27.14l.06-.07h0l-.09.29v0a1,1,0,0,0,0,.24c0,.06.06.19,0,.15Z" transform="translate(-0.59 -1.02)"/>
          </g>
          <g>
            <path class="cls-3" d="M15,4.59a.82.82,0,0,0,.08.45c.1.16.26.34.26.36a1.8,1.8,0,0,1,0,.31c0,.36.16.83.55.88s.36-.59.52-1-.29-1-.51-1.46A.75.75,0,0,0,14.8,4a6.59,6.59,0,0,1-1.12.57l.16.56" transform="translate(-0.59 -1.02)"/>
            <path class="cls-1" d="M15.05,4.6a.81.81,0,0,0,.06.41,3.69,3.69,0,0,0,.26.38,1.34,1.34,0,0,0,.13.8c.1.22.4.39.52.27a2.35,2.35,0,0,0,.23-.76A.75.75,0,0,0,16.18,5c-.11-.25-.26-.48-.4-.74A.48.48,0,0,0,15.21,4a.65.65,0,0,0-.32.12,3,3,0,0,1-.38.23c-.25.13-.52.24-.77.35h0l.06-.15.08.58s0,0,0,0,0,0,0,0l-.2-.54a.07.07,0,0,1,0-.1h0c.26-.13.51-.23.75-.37a2.5,2.5,0,0,0,.35-.21,1,1,0,0,1,.43-.17.74.74,0,0,1,.81.39c.13.24.28.48.41.74a1.81,1.81,0,0,1,.14.43.84.84,0,0,1-.06.46,2.32,2.32,0,0,1-.29.85c-.41.29-.76-.08-.88-.34a1.94,1.94,0,0,1-.11-.86c0,.11,0,0,0,0l0,0-.06-.09A1.48,1.48,0,0,1,15,5.1a.69.69,0,0,1,0-.51h0a0,0,0,0,1,.06,0A.05.05,0,0,1,15.05,4.6Z" transform="translate(-0.59 -1.02)"/>
          </g>
          <g>
            <path class="cls-3" d="M9.5,8.45c.41-.34.47-.95.6-1.25s.63-.9.67-1.1a1.47,1.47,0,0,1,.35-.66.74.74,0,0,1,.52-.31c.23,0,.26-.38.54-.43s.4.09.55,0,.22-.23.43-.21.49.07.77.11.88.07,1.1.57a4.55,4.55,0,0,1,.15.67l-.26.65" transform="translate(-0.59 -1.02)"/>
            <path class="cls-1" d="M9.42,8.36a1.6,1.6,0,0,0,.46-.87,2.64,2.64,0,0,1,.52-1,2.92,2.92,0,0,0,.25-.43,1.86,1.86,0,0,1,.22-.53,1.49,1.49,0,0,1,.41-.42A.61.61,0,0,1,11.57,5c.11,0,.1,0,.16-.09s.24-.35.48-.35.45.1.5,0,.11-.08.2-.14a.41.41,0,0,1,.33-.06l.53.09a2.23,2.23,0,0,1,1.07.31.79.79,0,0,1,.31.49,2.5,2.5,0,0,1,.07.54h0v0L15,6.54a0,0,0,1,1-.08,0l.26-.65v0h0C15,5.53,15,5.17,14.71,5a2.17,2.17,0,0,0-1-.28l-.53-.08c-.18-.06-.19.05-.43.19s-.39-.1-.55,0-.23.13-.35.29a.4.4,0,0,1-.28.14.6.6,0,0,0-.22.09,1.5,1.5,0,0,0-.35.36,1.55,1.55,0,0,0-.19.48,2.32,2.32,0,0,1-.28.49,2.44,2.44,0,0,0-.47.92,2,2,0,0,1-.53,1,.11.11,0,1,1-.15-.17Z" transform="translate(-0.59 -1.02)"/>
          </g>
          <g>
            <path class="cls-3" d="M15,5.4a4.23,4.23,0,0,1,.19.84,1.32,1.32,0,0,1-.34,1.1,2.65,2.65,0,0,1-.54.17c-.18,0-.39-.19-.39-.19l-.25-.46L14,6.53" transform="translate(-0.59 -1.02)"/>
            <path class="cls-1" d="M15.08,5.38a5.26,5.26,0,0,1,.21.75,1.49,1.49,0,0,1,0,.81,1.46,1.46,0,0,1-.18.38.42.42,0,0,1-.2.17l-.19.08a1.46,1.46,0,0,1-.43.09.69.69,0,0,1-.4-.26l0,0a2.5,2.5,0,0,1-.18-.48h0a.09.09,0,0,1,0,0L14,6.5a0,0,0,0,1,.07,0s0,0,0,.06l-.31.33v0h0l.26.45h0a.55.55,0,0,0,.29.17,2.85,2.85,0,0,0,.35-.08c.27,0,.37-.25.46-.49A2.48,2.48,0,0,0,15,5.41h0a0,0,0,0,1,0-.06S15.08,5.36,15.08,5.38Z" transform="translate(-0.59 -1.02)"/>
          </g>
          <g>
            <path class="cls-3" d="M13.21,5.2a3.7,3.7,0,0,0,.37.58,1.59,1.59,0,0,1,.42.71,3,3,0,0,1-.11,1.09c-.07.39-.19.69-.51.7a.46.46,0,0,1-.44-.23l-.12-.45-.34-1.18-.24-.3" transform="translate(-0.59 -1.02)"/>
            <path class="cls-1" d="M13.25,5.18l.29.41c.1.13.24.24.34.39a1.36,1.36,0,0,1,.24,1,7,7,0,0,1-.23,1,.57.57,0,0,1-.52.35.59.59,0,0,1-.55-.31v0c-.11-.55-.28-1.09-.37-1.64h0v0l-.24-.31a0,0,0,0,1,0-.06s0,0,.06,0l.24.3v0h0c.17.54.36,1.07.51,1.61V8c.14.22.54.22.61,0a6.5,6.5,0,0,0,.2-1,1.06,1.06,0,0,0-.18-.85c-.08-.13-.22-.23-.32-.41a1.46,1.46,0,0,1-.17-.51h0a.07.07,0,0,1,0,0Z" transform="translate(-0.59 -1.02)"/>
          </g>
          <path class="cls-1" d="M13.5,5.56l.54.35h0a.05.05,0,0,1,0,.06l.09.51a1,1,0,0,0,.07.47V7a0,0,0,0,1,0,.06,0,0,0,0,1-.05,0A1,1,0,0,1,14,6.51L13.88,6l.07.1-.54-.36h0a.11.11,0,0,1,0-.14A.12.12,0,0,1,13.5,5.56Z" transform="translate(-0.59 -1.02)"/>
          <g>
            <path class="cls-3" d="M11.87,7.17l-1.46.6c-.84.35-1.28.6-1.52.7s-.43.29-.32.5.19.34.53.21,3-1.33,3-1.33l.16,0-.09-.66Z" transform="translate(-0.59 -1.02)"/>
            <path class="cls-1" d="M11.88,7.21a17.7,17.7,0,0,1-1.75.86l-.88.44-.41.19c-.11.07-.16.14-.13.19s.09.22.2.22A1.43,1.43,0,0,0,9.34,9l.89-.39L12,7.77h0l.15,0h0s0,0,0,0h0l0,.05-.08-.66,0,0Zm0-.09h.27a0,0,0,0,1,0,0l.09.66a.05.05,0,0,1,0,.05h0v.08h0l-.15,0h0c-.59.28-1.18.56-1.78.82l-.9.39a1.86,1.86,0,0,1-.49.18.38.38,0,0,1-.33-.11A.79.79,0,0,1,8.46,9a.44.44,0,0,1,.22-.55c.17-.1.31-.15.46-.23L10,7.81c.29-.15.6-.27.9-.4l.46-.19A.73.73,0,0,1,11.86,7.12Z" transform="translate(-0.59 -1.02)"/>
          </g>
          <g>
            <path class="cls-3" d="M11.44,6.26a2.15,2.15,0,0,0,.28.73l.26.29,0,.34a.89.89,0,0,0,0,.23.54.54,0,0,0-.12.22c0,.12-.08.21.23.24s.76.08.77-.26a4.75,4.75,0,0,0,0-1.21,3.37,3.37,0,0,0-.38-.68,1.48,1.48,0,0,1-.32-.72" transform="translate(-0.59 -1.02)"/>
            <path class="cls-1" d="M11.49,6.25a1.92,1.92,0,0,0,.19.54,2.72,2.72,0,0,0,.34.46h0v0a4.93,4.93,0,0,0,.07.57h0a.06.06,0,0,1,0,0,.44.44,0,0,0-.1.22c0,.12,0,.1.08.13a2.26,2.26,0,0,0,.52,0c.19,0,.26-.08.24-.25V7.44a1.93,1.93,0,0,0-.05-.5,4.81,4.81,0,0,0-.22-.46c-.15-.29-.46-.63-.4-1,0,0,0-.05.05,0s0,0,0,0a2.07,2.07,0,0,0,.52.93,2.69,2.69,0,0,1,.25.51,1.89,1.89,0,0,1,.05.57V8a.43.43,0,0,1-.12.35.67.67,0,0,1-.33.12,3,3,0,0,1-.59,0,.25.25,0,0,1-.21-.12.38.38,0,0,1,0-.24.81.81,0,0,1,.12-.35l-.05.2h0a2.79,2.79,0,0,1-.07-.61l.06.12h0l-.17-.25a1,1,0,0,1-.16-.3,3.16,3.16,0,0,1-.11-.6s0,0,0,0S11.48,6.23,11.49,6.25Z" transform="translate(-0.59 -1.02)"/>
          </g>
          <path class="cls-1" d="M13.6,9.5a1,1,0,0,1-.37.1,1.65,1.65,0,0,1-.38.05,3.34,3.34,0,0,1-.77-.06h0s0,0,0-.05,0,0,0,0a11,11,0,0,0,1.51-.15.08.08,0,0,1,.09.06.08.08,0,0,1,0,.07Z" transform="translate(-0.59 -1.02)"/>
        </g>
        <g>
          <path class="cls-3" d="M14.4,11.13c1.25-3.45,4.19-5,6.79-4.65a6,6,0,0,1,2.67,1.08" transform="translate(-0.59 -1.02)"/>
          <path class="cls-1" d="M14.4,11.13a7.93,7.93,0,0,1,1.45-2.56,6.54,6.54,0,0,1,2.37-1.76,5.81,5.81,0,0,1,2.94-.45,6,6,0,0,1,2.77,1.1.11.11,0,0,1,0,.16.11.11,0,0,1-.15,0,6.11,6.11,0,0,0-2.67-1A5.88,5.88,0,0,0,18.29,7a6.51,6.51,0,0,0-2.37,1.65A7.81,7.81,0,0,0,14.4,11.13Z" transform="translate(-0.59 -1.02)"/>
        </g>
        <path class="cls-1" d="M24,7.86A5,5,0,0,0,21.57,7,5.64,5.64,0,0,0,19,7.27a5.43,5.43,0,0,0-2.17,1.37,6.61,6.61,0,0,0-.8,1,3.25,3.25,0,0,0-.52,1.19,4.39,4.39,0,0,1,1.21-2.32,5.31,5.31,0,0,1,1-.89A6.69,6.69,0,0,1,19,7.08a5.78,5.78,0,0,1,2.64-.27,4.82,4.82,0,0,1,2.49.9h0a.09.09,0,0,1,0,.13A.08.08,0,0,1,24,7.86Z" transform="translate(-0.59 -1.02)"/>
        <path class="cls-1" d="M17.22,12.68a6.35,6.35,0,0,1,2-4.07,4.26,4.26,0,0,1,2.13-.89A7,7,0,0,1,23.63,8a13.3,13.3,0,0,0-2.27,0,4.56,4.56,0,0,0-2,.82A5.18,5.18,0,0,0,18,10.52,8.47,8.47,0,0,0,17.22,12.68Z" transform="translate(-0.59 -1.02)"/>
        <g>
          <path class="cls-6" d="M24.2,7.7s-5.68.33-6,7.8c-.11,3.11.5,4,1.24,6.57.48,1.69,1.45,5,.85,6.76a4.25,4.25,0,0,1-3.19,2.84s4.39.45,4.36-4.45-2.62-8.48-2.2-12C19.82,10.9,21.75,8.52,24.2,7.7Z" transform="translate(-0.59 -1.02)"/>
          <path class="cls-1" d="M24.2,7.7a6.28,6.28,0,0,0-3.26,1.42,6.85,6.85,0,0,0-2,2.92,11.44,11.44,0,0,0-.63,3.52,12.15,12.15,0,0,0,.36,3.56,43.19,43.19,0,0,1,1.83,7A5.33,5.33,0,0,1,20,29.64a4.31,4.31,0,0,1-2.88,2.05h0v0a4.12,4.12,0,0,0,3.26-1.19,4.76,4.76,0,0,0,1.05-3.32,24,24,0,0,0-1.43-7,17.12,17.12,0,0,1-.77-3.53A11.65,11.65,0,0,1,19.72,13,9.27,9.27,0,0,1,21.3,9.77,6.28,6.28,0,0,1,24.2,7.7Zm0,0c-.51.33-1,.61-1.51,1a6.62,6.62,0,0,0-1.25,1.23,9.63,9.63,0,0,0-1.54,3.17,11,11,0,0,0-.45,3.5A16.2,16.2,0,0,0,20.23,20a24.49,24.49,0,0,1,1.48,7.1,4.78,4.78,0,0,1-1.13,3.5,4.08,4.08,0,0,1-3.45,1.1s-.05,0-.05-.07a.05.05,0,0,1,.05-.05h0a4.17,4.17,0,0,0,2.75-2.05,5.17,5.17,0,0,0,.37-3.43,26.17,26.17,0,0,0-.84-3.47c-.32-1.16-.71-2.28-1-3.47a11.7,11.7,0,0,1-.3-3.63A11.27,11.27,0,0,1,18.73,12a7,7,0,0,1,2.1-3A5.16,5.16,0,0,1,24.2,7.7Z" transform="translate(-0.59 -1.02)"/>
        </g>
      </g>
      <g>
        <path class="cls-7" d="M18.15,2a.76.76,0,0,1-.83-.85.74.74,0,0,1-.84.83.76.76,0,0,1,.83.85A.75.75,0,0,1,18.15,2Z" transform="translate(-0.59 -1.02)"/>
        <path class="cls-7" d="M7.81,6.73A.75.75,0,0,1,7,5.89a.75.75,0,0,1-.84.83A.75.75,0,0,1,7,7.56.75.75,0,0,1,7.81,6.73Z" transform="translate(-0.59 -1.02)"/>
        <path class="cls-7" d="M31.21,11.21a.75.75,0,0,1-.84-.84.75.75,0,0,1-.83.84.75.75,0,0,1,.83.84A.76.76,0,0,1,31.21,11.21Z" transform="translate(-0.59 -1.02)"/>
        <path class="cls-7" d="M29.47,3a.75.75,0,0,1-.83-.84A.75.75,0,0,1,27.8,3a.76.76,0,0,1,.84.84A.75.75,0,0,1,29.47,3Z" transform="translate(-0.59 -1.02)"/>
      </g>
    </g>
    <path class="cls-8" d="M30.08,24.63l3-2.44-5,0V19.76l8.66,0V22l-3,2.31A3.6,3.6,0,0,1,37.11,28c0,2.13-1.75,4.06-4.71,4.07-2.79,0-4.58-1.78-4.77-3.83l2.81-.53a1.89,1.89,0,0,0,1.94,1.88,1.64,1.64,0,0,0,1.78-1.65,1.58,1.58,0,0,0-1.74-1.62,2.35,2.35,0,0,0-1.07.28Z" transform="translate(-0.59 -1.02)"/>
  </g>
</svg>
