<?xml version="1.0" standalone="no"?>
<!DOCTYPE svg PUBLIC "-//W3C//DTD SVG 20010904//EN"
 "http://www.w3.org/TR/2001/REC-SVG-20010904/DTD/svg10.dtd">
<svg version="1.0" xmlns="http://www.w3.org/2000/svg"
 width="260.000000pt" height="260.000000pt" viewBox="0 0 260.000000 260.000000"
 preserveAspectRatio="xMidYMid meet">
<metadata>
Created by potrace 1.14, written by Peter Selinger 2001-2017
</metadata>
<g transform="translate(0.000000,260.000000) scale(0.100000,-0.100000)"
fill="#000000" stroke="none">
<path d="M1610 2291 c-465 -40 -885 -250 -1121 -561 -61 -80 -144 -244 -164
-325 -20 -79 -19 -227 1 -296 34 -112 102 -212 180 -260 19 -11 34 -25 34 -31
0 -16 -81 -148 -92 -148 -17 0 -93 42 -154 86 l-62 43 -56 -93 c-31 -52 -56
-99 -56 -104 0 -5 26 -27 58 -49 233 -164 600 -253 987 -240 180 6 290 22 433
63 340 99 609 347 645 597 12 85 -7 191 -49 276 -29 58 -99 140 -138 161 -26
14 -26 14 60 42 48 16 112 44 143 63 76 46 161 137 196 210 25 51 29 72 30
145 0 72 -4 94 -27 143 -57 122 -204 219 -388 257 -110 23 -320 32 -460 21z
m272 -242 c21 -5 49 -24 67 -44 28 -32 31 -42 31 -103 0 -206 -213 -365 -520
-389 l-82 -6 12 24 c24 44 303 514 313 527 11 14 106 9 179 -9z m-936 -564
c-166 -277 -304 -504 -308 -505 -18 -1 -81 67 -102 109 -30 59 -38 98 -38 179
2 302 261 583 643 696 46 14 89 25 95 25 6 1 -124 -226 -290 -504z m475 -155
c190 -16 294 -60 319 -136 45 -134 -179 -278 -510 -329 -100 -16 -193 -18
-222 -7 -15 6 2 41 117 232 120 200 155 250 174 250 3 0 58 -5 122 -10z m296
-522 c-69 -108 -199 -192 -372 -240 -71 -19 -105 -22 -302 -22 -122 -1 -225 2
-229 6 -3 4 12 38 34 76 l41 69 158 -5 c237 -6 421 33 613 132 47 24 87 42 88
41 2 -2 -12 -27 -31 -57z"/>
</g>
</svg>
