<?xml version="1.0" encoding="utf-8"?>
<!-- Generator: Adobe Illustrator 25.4.1, SVG Export Plug-In . SVG Version: 6.00 Build 0)  -->
<svg version="1.1" id="Layer_1" xmlns="http://www.w3.org/2000/svg" xmlns:xlink="http://www.w3.org/1999/xlink" x="0px" y="0px"
	 viewBox="0 0 46.4 176.9" style="enable-background:new 0 0 46.4 176.9;" xml:space="preserve">
<style type="text/css">
	.st0{fill:none;stroke:url(#SVGID_1_);stroke-width:4;stroke-miterlimit:10;}
</style>
<linearGradient id="SVGID_1_" gradientUnits="userSpaceOnUse" x1="-11.6175" y1="15.6165" x2="67.6506" y2="152.9129" gradientTransform="matrix(1 0 0 -1 0 178)">
	<stop  offset="0.17" style="stop-color:#C2C5C9"/>
	<stop  offset="0.38" style="stop-color:#ACB4C5"/>
	<stop  offset="0.49" style="stop-color:#E9EDEE"/>
	<stop  offset="0.7" style="stop-color:#9EA2AA"/>
	<stop  offset="0.9" style="stop-color:#C9CBD0"/>
</linearGradient>
<path class="st0" d="M21.3,23.5l0.3-17.8c0,0,1.9-5.4,7.3-0.3s8,7.6,7,26.7l2,2.5v8.6c0,0,5.7,5.1,5.7,35.6V166
	c0,0-4.1,7.6-18.8,7.6s-22-3.2-22-8.3s0-100.9,0-100.9s1-13.4,5.4-19.7v-7.6l2.5-2.5V27C10.8,27,9.5,22.9,21.3,23.5z M10.8,34.6
	c0,0,11.1,3.8,27.1,0 M8.2,43.7c0,0,12.2,3.5,29.6,0 M2.5,156.4c0,0,17.2,7,41.4-1 M2.5,94.3c0,0,28,0.8,41.4-14"/>
</svg>
