<svg xmlns="http://www.w3.org/2000/svg" viewBox="0 0 42.733 42.742"><defs><style>.a{fill:#fff;}</style></defs><g transform="translate(0)"><path class="a" d="M228.9,214.7v6.385l5.909-3.18-3.23-1.753Z" transform="translate(-209.795 -196.78)"/><path class="a" d="M36.474,6.26a21.369,21.369,0,1,0,6.26,15.115A21.337,21.337,0,0,0,36.474,6.26Zm-4.2,14.556v1.411c0,1.845-.209,3.664-.209,3.664a5.223,5.223,0,0,1-.876,2.27,3.064,3.064,0,0,1-2.178.968c-3.055.217-7.629.234-7.629.234s-5.676-.058-7.42-.234a3.549,3.549,0,0,1-2.412-.968,5.223,5.223,0,0,1-.876-2.27,34.087,34.087,0,0,1-.225-3.664V20.491a34.709,34.709,0,0,1,.225-3.664,5.167,5.167,0,0,1,.876-2.262,3.091,3.091,0,0,1,2.187-.968c3.055-.225,7.62-.225,7.62-.225h.025s4.582,0,7.629.225a3.139,3.139,0,0,1,2.178.968,5.132,5.132,0,0,1,.876,2.262s.209,1.845.209,3.664Z" transform="translate(0 0)"/></g></svg>