<svg xmlns="http://www.w3.org/2000/svg" viewBox="0 0 42.742 42.742"><defs><style>.a{fill:#fff;}</style></defs>
        <path class="a" d="M195.968,190.4a5.476,5.476,0,1,0,5.476,5.476A5.483,5.483,0,0,0,195.968,190.4Z" transform="translate(-174.597 -174.505)"/>
        <path class="a" d="M158,142.9H146.7a3.8,3.8,0,0,0-3.8,3.8V158a3.8,3.8,0,0,0,3.8,3.8H158a3.8,3.8,0,0,0,3.8-3.8V146.7A3.8,3.8,0,0,0,158,142.9Zm-5.66,16.354a6.912,6.912,0,1,1,6.912-6.912A6.915,6.915,0,0,1,152.342,159.254Zm6.779-12.53a1.11,1.11,0,1,1,1.11-1.11A1.11,1.11,0,0,1,159.12,146.723Z" transform="translate(-130.971 -130.971)"/>
        <path class="a" d="M36.481,6.261a21.369,21.369,0,1,0-15.11,36.481A21.369,21.369,0,0,0,36.481,6.261ZM32.09,27.031A5.081,5.081,0,0,1,27.023,32.1H15.728a5.091,5.091,0,0,1-5.067-5.067v-11.3a5.081,5.081,0,0,1,5.067-5.067h11.3A5.07,5.07,0,0,1,32.1,15.728v11.3Z" transform="translate(0 0)"/>
</svg>