<svg id="Layer_3_copy_5" data-name="Layer 3 copy 5" xmlns="http://www.w3.org/2000/svg" viewBox="0 0 120.9673 118.7301"><path d="M334.8851,258.136c2.1-3.6338,7.45-10.4925,7.45-10.4925s5.3508,6.8587,7.4508,10.4925c2.8531,4.9375,3.3942,8.5225,2.5,11.91-.6973,2.6563-3.6026,7.9011-9.95,7.9011s-9.2519-5.2448-9.9506-7.9011c-.894-3.3872-.3532-6.9722,2.5-11.91Z" transform="translate(-264.9338 -245.8935)" style="fill:none;stroke:#a273e7;stroke-linecap:round;stroke-linejoin:round;stroke-width:3.5px"/><path d="M344.84,301.9311l-35.0246,38.1007-.632-2.982c-1.2511-6.2717-2.6581-10.9287-.4916-13.2852l31.4777-34.2422c2.1658-2.3564,2.7875,3.1551,4.0383,9.4268l.6322,2.9819Z" transform="translate(-264.9338 -245.8935)" style="fill:none;stroke:#78cacb;stroke-linecap:round;stroke-miterlimit:10;stroke-width:3.5px"/><line x1="79.2739" y1="53.0557" x2="83.6819" y2="75.1538" style="fill:none;stroke:#78cacb;stroke-linecap:round;stroke-miterlimit:10;stroke-width:3.5px"/><line x1="72.8704" y1="63.6912" x2="76.6768" y2="82.7741" style="fill:none;stroke:#78cacb;stroke-linecap:round;stroke-miterlimit:10;stroke-width:3.5px"/><line x1="65.8657" y1="71.3117" x2="69.6722" y2="90.3941" style="fill:none;stroke:#78cacb;stroke-linecap:round;stroke-miterlimit:10;stroke-width:3.5px"/><line x1="58.8608" y1="78.9316" x2="62.6672" y2="98.0141" style="fill:none;stroke:#78cacb;stroke-linecap:round;stroke-miterlimit:10;stroke-width:3.5px"/><line x1="51.8561" y1="86.5516" x2="55.6622" y2="105.6345" style="fill:none;stroke:#78cacb;stroke-linecap:round;stroke-miterlimit:10;stroke-width:3.5px"/><line x1="44.2495" y1="91.1564" x2="48.6576" y2="113.2548" style="fill:none;stroke:#78cacb;stroke-linecap:round;stroke-miterlimit:10;stroke-width:3.5px"/><path d="M266.6838,307.7412c13.9638,5.5861,22.0875,32.3867,38.2663,43.5016" transform="translate(-264.9338 -245.8935)" style="fill:none;stroke:#78cacb;stroke-linecap:round;stroke-miterlimit:10;stroke-width:3.5px"/><path d="M299.9134,321.753c-15.489-17.3785-24.2719-34.7838-32.2462-35.5086" transform="translate(-264.9338 -245.8935)" style="fill:none;stroke:#78cacb;stroke-linecap:round;stroke-miterlimit:10;stroke-width:3.5px"/><path d="M269.8135,266.7754c9.6475,3.8446,19.056,16.209,29.5856,29.4383,1.58,1.9912,9.57,11.5572,11.1873,13.371" transform="translate(-264.9338 -245.8935)" style="fill:none;stroke:#78cacb;stroke-linecap:round;stroke-miterlimit:10;stroke-width:3.5px"/><path d="M284.4244,258.26c3.9509,1.5775,7.9566,5.2054,12.0361,9.8779v.02c2.485,3.0809,8.1777,10.2523,8.1777,10.2523v.02A133.0344,133.0344,0,0,0,322.13,297.5348" transform="translate(-264.9338 -245.8935)" style="fill:none;stroke:#78cacb;stroke-linecap:round;stroke-miterlimit:10;stroke-width:3.5px"/><path d="M297.4892,253.7375c10.75,5.0849,17.6966,19.2856,32.3407,34.8266" transform="translate(-264.9338 -245.8935)" style="fill:none;stroke:#78cacb;stroke-linecap:round;stroke-miterlimit:10;stroke-width:3.5px"/><path d="M323.5667,360.3366s7.9189,6.4105,18.0892-1.1487,10.4388-8.2164,17.8324-2.1372c4.3607,3.5854,7.9527,2.8263,12.5455.1226,5.6337-3.3161,7.5737-1.9707,10.9432,3.82" transform="translate(-264.9338 -245.8935)" style="fill:none;stroke:#a273e7;stroke-linecap:round;stroke-linejoin:round;stroke-width:3.5px"/><path d="M329.83,351.5679c6.3056,2.69,12.9564-11.1114,23.2415-11.1114" transform="translate(-264.9338 -245.8935)" style="fill:none;stroke:#a273e7;stroke-linecap:round;stroke-linejoin:round;stroke-width:3.5px"/><path d="M353.0714,340.4565c3.0417-.0047,3.9322,1.6005,6.3286,3.3246,3.1833,2.29,5.7457,4.9068,9.9714,3.7315,3.1915-.8873,4.1781-2.36,7.56-2.4627,3.2943-.1,4.5169.9933,7.22,2.8382" transform="translate(-264.9338 -245.8935)" style="fill:none;stroke:#a273e7;stroke-linecap:round;stroke-linejoin:round;stroke-width:3.5px"/><path d="M380.7866,337.5723c-2.9961-2.1654-3.0449-1.2289-6.377-.5952-3.6609.6962-7.0043.48-9.1975-2.8436-2.4168-3.6627-3.3805-6.2519-8.1114-5.171-4.0056,1.4052-5.2031,1.2162-5.2031,1.2162" transform="translate(-264.9338 -245.8935)" style="fill:none;stroke:#a273e7;stroke-linecap:round;stroke-linejoin:round;stroke-width:3.5px"/><path d="M355.1944,314.99s6.7174-7.3117,14.3572,5.8322,7.9792.4111,13.7295,7.3939" transform="translate(-264.9338 -245.8935)" style="fill:none;stroke:#a273e7;stroke-linecap:round;stroke-linejoin:round;stroke-width:3.5px"/></svg>