<svg id="Layer_3_copy_5" data-name="Layer 3 copy 5" xmlns="http://www.w3.org/2000/svg" viewBox="0 0 92.833 105.8056"><path d="M479.9282,339.8019a1.5,1.5,0,1,0,1.6582-2.5,36.2246,36.2246,0,0,1-4.4467-3.5l3.437-3.4375a1.5,1.5,0,0,0-2.1211-2.1211l-3.45,3.45a35.8161,35.8161,0,0,1-9.4839-22.8066h6.8559a1.5,1.5,0,0,0,0-3h-6.87a35.809,35.809,0,0,1,9.4219-22.8833l3.5278,3.5278a1.5,1.5,0,1,0,2.1211-2.1211l-3.53-3.53a35.8064,35.8064,0,0,1,22.8853-9.499v6.6968a1.5,1.5,0,0,0,3,0v-6.6968a35.8077,35.8077,0,0,1,22.8848,9.4986l-3.5288,3.5312a1.5,1.5,0,1,0,2.122,2.1211l3.5264-3.5288a35.8063,35.8063,0,0,1,9.4219,22.8833h-6.8692a1.5,1.5,0,0,0,0,3h6.8653a35.8089,35.8089,0,0,1-9.4971,22.8037l-3.4478-3.4473a1.5,1.5,0,0,0-2.1211,2.1211l3.4458,3.4453a35.8069,35.8069,0,0,1-22.8022,9.4219v-7.5049a1.5,1.5,0,0,0-3,0v7.5059a35.7547,35.7547,0,0,1-12.3286-2.72,1.5,1.5,0,0,0-1.1553,2.7695,38.9958,38.9958,0,1,0-6.5215-3.4805Z" transform="translate(-455.0176 -247.9172)" style="fill:#78cacb"/><path d="M501.3423,284.6872a1.5,1.5,0,0,0-1.5,1.5v16.7681a4.609,4.609,0,1,0,5.9072,5.6674h18.9141a1.5,1.5,0,0,0,0-3H505.6357a4.61,4.61,0,0,0-2.7934-2.6674V286.1872A1.5,1.5,0,0,0,501.3423,284.6872Zm1.6211,22.6186a1.6214,1.6214,0,1,1-1.6211-1.6211A1.6246,1.6246,0,0,1,502.9634,307.3058Z" transform="translate(-455.0176 -247.9172)" style="fill:#efa9be"/><path d="M501.4336,353.7228a46.4154,46.4154,0,0,0,17.1685-89.54l1.1811-3.4527a3.9129,3.9129,0,0,0,2.2075-7.5009l-2.1977-.752a3.9169,3.9169,0,0,0-4.9761,2.44l-.001.0019,0-.0019a3.8984,3.8984,0,0,0,2.1279,4.8427l-1.1635,3.4009a46.1491,46.1491,0,0,0-9.314-1.9946v-4.5239a4.4009,4.4009,0,0,0-.8213-8.7251h-8.4228a4.4009,4.4009,0,0,0-.8213,8.7251v4.5239a46.1453,46.1453,0,0,0-9.3028,1.9907l-1.1611-3.397a3.9136,3.9136,0,0,0-2.85-7.2822l-2.1977.752a3.9112,3.9112,0,0,0,2.2085,7.5009l1.1792,3.4478a46.4156,46.4156,0,0,0,17.1562,89.5444ZM517.6543,255.89l0-.0015a.9176.9176,0,0,1,1.167-.5727l2.1977.7524a.92.92,0,0,1,.6241.87.9073.9073,0,0,1-.05.2988.9168.9168,0,0,1-1.1665.5722l-2.2-.7524a.9192.9192,0,0,1-.6231-.8686A.9063.9063,0,0,1,517.6543,255.89ZM482.1582,257.86a.92.92,0,0,1-.2978-1.7911l2.1982-.7519a.9051.9051,0,0,1,.2979-.05.9208.9208,0,0,1,.8706.623.906.906,0,0,1,.05.2979.9219.9219,0,0,1-.6236.8706l-2.1977.7515A.917.917,0,0,1,482.1582,257.86Zm13.66-5.5381a1.4063,1.4063,0,0,1,1.4043-1.4043h8.4228a1.4041,1.4041,0,1,1,0,2.8081h-8.4228A1.4056,1.4056,0,0,1,495.8184,252.3215Zm3.583,4.4038h4.0654v4.2163c-.6748-.0293-1.3516-.0518-2.0332-.0518s-1.3579.0225-2.0322.0513Zm-28.6675,19.8808a43.4164,43.4164,0,1,1-12.7163,30.7A43.2759,43.2759,0,0,1,470.7339,276.6061Z" transform="translate(-455.0176 -247.9172)" style="fill:#efa9be"/></svg>