<svg id="Layer_1" data-name="Layer 1" xmlns="http://www.w3.org/2000/svg" viewBox="0 0 79.3211 106.1857"><path d="M71.7,82.8A52.37,52.37,0,0,0,82.3,62.4l3.3,2a32.1339,32.1339,0,0,1-3.3-10.2,34.173,34.173,0,0,1-6.9,8.2l3.8-.6a49.3487,49.3487,0,0,1-9.9,19,52.237,52.237,0,0,1-11.1,9.8l-.5-3.8a32.1843,32.1843,0,0,1-5.8,9,34.7961,34.7961,0,0,1,10.7.2l-2.9-2.6A54.8084,54.8084,0,0,0,71.7,82.8Z" transform="translate(-7.9245 -0.7143)" style="fill:#78c9ca"/><path d="M38.5,91l-.7-1.2c-2.7-4.7-10.5-9.2-14.9-10.5l-1.2-.4.1-1.3c.4-5.4,4.8-12.8,4.9-13.1v-.1l4.8-7.2c8.6-13,24.7-37.2,28.2-42.3C64.1,8.2,65.4,7,71,8.5c5.3,1.4,12.8,7.7,14.8,10.9l.1.2c2.1,3.5,2.1,4.8-2.6,11.8-1.6,2.4-5.8,8.6-10.6,15.8C63.5,61,52.1,78.1,49.9,80.9c-3.6,4.6-6.7,8-10.2,9.5ZM25,76.7c4.2,1.6,11.1,5.4,14.6,10.3,2.4-1.5,4.9-4.3,7.8-8,2.2-2.8,14-20.5,22.6-33.5L80.6,29.6c4-5.9,3.9-6.2,2.5-8.4l-.1-.1c-1.6-2.7-8.6-8.4-12.8-9.5-3.7-1-3.9-1-7.9,5.1C58.9,21.7,42.8,46,34.1,59l-4.7,7.1C29.1,66.7,25.8,72.3,25,76.7Z" transform="translate(-7.9245 -0.7143)" style="fill:#037ea4"/><path d="M54.1,70.1C52.6,61.4,41,52,38.1,50.3l1.6-2.7c3.2,1.9,15.8,12.1,17.6,21.9Z" transform="translate(-7.9245 -0.7143)" style="fill:#037ea4"/><path d="M79.3,31.8c-.6-3.2-3.7-6.8-8.4-9.9-4.9-3.2-9.3-4.3-10.4-4l-.8-3.1c2.8-.7,8.6,1.7,12.8,4.4,3.2,2.1,8.7,6.4,9.8,12Z" transform="translate(-7.9245 -0.7143)" style="fill:#037ea4"/><path d="M20,106.9a6.5589,6.5589,0,0,1-3.1-.6,2.1778,2.1778,0,0,1-1.3-2.1c.1-.9.7-2.1,3.4-6.6.7-1.1,1.4-2.4,2.2-3.8-2-1.3-3.6-2.6-4-4.4a6.1741,6.1741,0,0,1,1.1-4.5,9.4283,9.4283,0,0,0,1.3-3,12.1093,12.1093,0,0,1,2.4-5l2.6,1.9a8.9288,8.9288,0,0,0-1.9,3.8,10.7055,10.7055,0,0,1-1.7,4,3.0216,3.0216,0,0,0-.7,2.1c.2,1,1.9,2,3.9,3.3l1.3.8-.8,1.3c-1.1,2-2.1,3.7-3,5.2-1,1.8-2,3.4-2.6,4.5a10.72,10.72,0,0,0,7.3-2.2,15.4353,15.4353,0,0,0,4.2-5.2c.8-1.4,1.5-2.8,2.9-3.4s3.4-3.2,4.3-4.7L40.5,90c-.3.5-3,4.7-5.7,5.9-.5.2-.9,1.1-1.5,2.1a18.15,18.15,0,0,1-5,6.3A15.4631,15.4631,0,0,1,20,106.9Z" transform="translate(-7.9245 -0.7143)" style="fill:#037ea4"/><path d="M35.2,93.2c-2.2-3.5-10.1-9.1-13.8-9.7l.5-3.1c4.9.9,13.4,7.2,15.9,11.2Z" transform="translate(-7.9245 -0.7143)" style="fill:#037ea4"/><path d="M39.3,42.1a2.36,2.36,0,0,0-1.6-.7,2.2885,2.2885,0,0,0-2.2,2.2v.7a2.221,2.221,0,0,0-.4,2.2c-.1.2-.1.4-.2.5-.1.5-.2.9-.3,1.4-.1.9-.2,1.9-.3,2.8a2.9946,2.9946,0,0,0-1-.4,2.2339,2.2339,0,0,0-2.2,1.1,12.3574,12.3574,0,0,0-.8,11.8,2.15,2.15,0,0,0,2.5,1,2.25,2.25,0,0,0,1.6-2.2V60.1a2.8342,2.8342,0,0,0,2.9-1.3,11.1066,11.1066,0,0,0,1-2.9,55.0894,55.0894,0,0,0,.6-5.7A2.1935,2.1935,0,0,0,40,48.4V43.7A2.36,2.36,0,0,0,39.3,42.1Z" transform="translate(-7.9245 -0.7143)" style="fill:#fff"/><path d="M41.8,28a60.3817,60.3817,0,0,1,8-13.9,1.57,1.57,0,1,0-2.5-1.9,67.6645,67.6645,0,0,0-8.4,14.7A78.75,78.75,0,0,0,36,34.4a1.5675,1.5675,0,0,0,.6,1.7,34.2422,34.2422,0,0,1,2.6,7.2,11.4969,11.4969,0,0,1,.1,5.2c-.9,3.5-2.4,8.2-2.3,13.6a27.4786,27.4786,0,0,0,5.9,16.3,4.4873,4.4873,0,0,1-1.7-.4,14.1658,14.1658,0,0,1-3.7-2.5,23.5269,23.5269,0,0,1-3.8-4.7,28.0886,28.0886,0,0,1-4-15.1A1.9091,1.9091,0,0,0,28.1,54c-1.9-.4-3.6,5.4-4.1,6.7-.5,1.2-2.7,6.7-2.9,7.2l3.2,1.7c.2-.5,2.5-5.3,3.2-6.5A25.4449,25.4449,0,0,0,29.1,69a17.0662,17.0662,0,0,0,1.4,2.7,22.9968,22.9968,0,0,0,4.8,6,15.5293,15.5293,0,0,0,4.6,3.1,8.8653,8.8653,0,0,0,2.8.7,4.102,4.102,0,0,0,1.1-.1,5.2278,5.2278,0,0,0,1.6-.6,3.5315,3.5315,0,0,0,1.3-1.4,1.5141,1.5141,0,0,0-.2-1.7C41.8,72,40.4,66.8,40.3,62s1.2-9.1,2.2-12.7a13.8425,13.8425,0,0,0-.1-6.7,43.5929,43.5929,0,0,0-2.1-6.4l-.9-1.8c.1-.3.2-.7.4-1.2A30.7173,30.7173,0,0,1,41.8,28Z" transform="translate(-7.9245 -0.7143)" style="fill:#78c9ca"/><path d="M19.1,100.7h0A10.407,10.407,0,0,1,11.3,97C6.4,90.9,7.7,78.5,9.8,66.1c1-6.1,1.6-11.1,2.1-15.5.8-6.9,1.5-12.8,3.5-19.5,3.9-12.9,17-29,17.6-29.7a1.78,1.78,0,1,1,2.8,2.2C31.2,9.2,21.9,22.2,19,32c-1.9,6.4-2.6,11.9-3.4,18.9-.5,4.5-1.1,9.6-2.2,15.7-1.8,10.4-3.3,23,.8,28.1a6.898,6.898,0,0,0,2.4,1.8c-1.9-10.2,3.1-26.2,5.8-31.6a1.7889,1.7889,0,0,1,3.2,1.6c-2.9,5.8-8.1,23.6-4.8,31.7a1.7212,1.7212,0,0,1-.2,1.7A1.7632,1.7632,0,0,1,19.1,100.7Z" transform="translate(-7.9245 -0.7143)" style="fill:#78c9ca"/><path d="M9.8,86.6H9.6A1.7694,1.7694,0,0,1,8,84.7C8.7,76.4,10.6,72,12.8,67a84.2242,84.2242,0,0,0,3.9-10,1.8344,1.8344,0,0,1,3.5,1.1c-1.4,4.3-2.8,7.5-4,10.3-2.2,4.9-3.9,8.8-4.6,16.5A1.8391,1.8391,0,0,1,9.8,86.6Z" transform="translate(-7.9245 -0.7143)" style="fill:#78c9ca"/></svg>