<svg id="Layer_1" data-name="Layer 1" xmlns="http://www.w3.org/2000/svg" viewBox="0 0 120.8719 30.0978"><path d="M117.6329,15.0515l.4344.0021.2962-1.5721.6.0032.0757-.4-1.6353-.0077-.0757.4.601.0024Z" transform="translate(-0.4765 -1.1819)" style="fill:#fff"/><path d="M120.8772,13.0931l-.6755.8308-.362-.8359-.4677-.0017-.3706,1.9714.4253.0017.2416-1.2812.3959.8368.0106.0028.7149-.843-.2432,1.287.4312.0023.3707-1.9715Z" transform="translate(-0.4765 -1.1819)" style="fill:#fff"/><path d="M74.9271,11.89a4.3942,4.3942,0,0,0,3.835-2.8484c.55-1.58-.2738-2.87-1.8417-2.8782C74.0083,5.8819,70.6648,11.4342,74.9271,11.89Z" transform="translate(-0.4765 -1.1819)" style="fill:#fff"/><path d="M105.1893,24.62c3.71-.3716,9.0653-2.3838,10.8045-6.66a3.2641,3.2641,0,0,0-2.1564-4.589c-4.4173-1.3061-8.9717,1.2408-11.62,4.7187a12.7,12.7,0,0,0-2.7192,5.8645c-.4747.6354-1.8558,2.375-2.8554,2.21-2.6584-.5692.7062-4.9083,1.4972-6.3026l4.4726-7.1713,2.069.0085,1.8276-2.916-2.1137-.0081,1.9562-3.2013L100.3,6.55,98.3466,9.7517,96.5883,9.743l-1.822,2.9185,1.7991.0073c-.9453,1.5442-4.3225,7.0834-4.3225,7.0834h0A25.6394,25.6394,0,0,1,88.739,24.9a5.1165,5.1165,0,0,0-.535-2.4692h0c-.3751-.826-.961-1.8725-.961-1.8725h0c-.85-1.8188-1.6274-2.8008-1.2639-4.3423.8654-2.0587,3.4439-.8162,4.4616.4036l1.3527-2.1336c-2.186-2.4034-9.7557-2.8148-11.4851,2.5355-1.0038,3.9333,2.3922,6.1511,2.1555,8.4518-.3764,3.7036-6.9215,3.126-6.3677-.6976,0,0,2.2638-.0187,3.05-1.5106a2.72,2.72,0,0,0-.7015-3.45c-3.9475-1.8776-6.0455,3.1839-5.159,6.4169C70.9166,27.57,69.38,25.6351,70.3267,23.76c1.3139-2.5935,4.464-7.5931,6.01-10.121l-6.0645-.0245s-3.2221,5.2516-5.1345,8.2483c-1.7607,2.76-3.1422,4.5129-4.4805,4.0177-1.3908-.5155.0937-3.1656.4969-3.7664l5.8493-9.5709,2.0692.0076L70.9,9.6345l-2.1147-.0084,1.9552-3.2016L64.6908,6.4,62.7365,9.6017,60.9782,9.593,59.1568,12.51l1.7988.0083s-4.2952,6.9012-6.6018,10.6c-1.2126,1.9445-2.6622,3.0888-3.6228,2.7989-1.1121-.4622-.8135-1.5127-.5435-2.0728.3643-.7562,5.6794-9.6207,6.0542-10.2892L50.3036,13.53l-.6648,1.0492a6.0738,6.0738,0,0,0-3.7959-1.61l.0763.0205c-4.0009-.4493-7.8448,1.61-10.4676,4.5444h0a17.9134,17.9134,0,0,0-1.479,1.88c-.1728.2568-.3619.5362-.5337.8276a7.9976,7.9976,0,0,0-.7611-3.4829h0a4.56,4.56,0,0,0-2.7453-2.2341c9.82-1.4679,11.15-13.784-4.59-13.33C16.3106,1.2277,7.2311,5.6054,4.1581,13.5516h0c-1.3011,3.5031-.4111,7.78,3.0459,9.6714,0,0-1.2006,1.8959-1.5373,2.4307a15.15,15.15,0,0,1-3.32-2.1921l-1.87,2.9707c5.0575,5.0993,23.7213,8.247,31.1962-1.4109a6.96,6.96,0,0,0,.1145,2.5h0c1.2242,3.6439,6.732,4.2279,12.1936-.0527.9806,4.8864,6.9311,3.3578,10.9236-.371A3.8681,3.8681,0,0,0,58.77,30.54h0a10.886,10.886,0,0,0,6.4609-2.1772c1.2542,2.7789,5.8933,3.2158,9.2233.1931,1.7654,2.1658,5.2532,2.5628,7.8969,2.21h0a13.7,13.7,0,0,0,7.9346-4.2377,3.9452,3.9452,0,0,0,3.7085,4.1682q.1876.0108.3757.0039h0a10.972,10.972,0,0,0,6.04-1.9022c4.51,5.0791,14.895.6607,17.9554-4.7557l-1.4927-1.1364C113.8577,27.8915,104.4479,30.6236,105.1893,24.62Zm4.31-8.4581c5.1895-3.8319,4.8488,5.2088-3.8857,6.35a16.0924,16.0924,0,0,1,3.8859-6.3508ZM25.6382,18.8272c-.541,2.8152-7.95,4.7172-11.7311,4.002L14.89,21.27l-.01-.0026,3.53-5.5839s7.883-.2251,7.2283,3.1426ZM8.65,20.9219C4.2525,18.4942,6.1316,7.9024,18.3083,5.6444,18.2526,5.64,9.7122,19.26,8.6506,20.921Zm2.69,6.5442c-.1066-.0194-.2109-.0361-.3192-.057l1.3971-2.2334a19.3221,19.3221,0,0,0,13.2977-2.34C22.8114,29.05,13.208,27.7766,11.341,27.4642ZM29.4169,8.2883c-1.18,3.3868-4.9846,4.8782-9.3546,4.7842L25.28,4.6892c1.9322.0669,4.8622-.1027,4.1377,3.5972ZM45.96,19.8656c-3.1113,5.1861-6.2325,8.0984-8.0549,6.9788-.9483-.5859-.5827-2.32.7921-4.5506C42.2267,15.5622,49.9306,13.2457,45.96,19.8656Z" transform="translate(-0.4765 -1.1819)" style="fill:#fff"/></svg>