<?xml version="1.0" encoding="utf-8"?>
<!-- Generator: Adobe Illustrator 25.4.1, SVG Export Plug-In . SVG Version: 6.00 Build 0)  -->
<svg version="1.1" id="banner" xmlns="http://www.w3.org/2000/svg" xmlns:xlink="http://www.w3.org/1999/xlink" x="0px" y="0px"
	 viewBox="0 0 3000 717.8" style="enable-background:new 0 0 3000 717.8;" xml:space="preserve">
<style type="text/css">
	.st0{fill:#3D3D3D;}
</style>
<g>
	<path class="st0" d="M1835.6,170.6c87.3-18.5,143.2-62.3,197.3-104.8c31.3-24.5,61.8-48.4,96.9-65.8h-118.1
		c-3.9,3.1-7.8,6.1-11.7,9.2c-54.2,42.9-110.2,87.2-198.8,105.9c-148.4,31.4-246.7-38.6-350.9-112.6c-1.2-0.8-2.3-1.7-3.5-2.5h-43
		c29.8,18.5,58.1,38.8,86.2,58.9C1592.6,132.2,1689.5,201.5,1835.6,170.6z"/>
	<path class="st0" d="M1800.2,110c87.4-18.5,142.9-62.4,196.6-104.9c2.2-1.7,4.3-3.4,6.5-5.1h-108.4
		c-35.8,23.4-76.7,43.5-129.1,54.6c-25,5.3-48.6,7.7-71.1,7.7c-74.2,0-136-26.4-194.8-62.3h-44C1558.2,72.7,1655.2,140.7,1800.2,110
		z"/>
	<path class="st0" d="M2625.4,92.4c53,4.2,129-26.6,198.2-80.2c5.1-4,10.2-8,15.1-12.2h-86.1c-55.2,33.5-110.6,51.1-153.1,47.4
		c-42.7-3.7-83.8-22.6-125.3-47.4h-44.6c3.2,2.1,6.5,4.3,9.7,6.4C2501.8,48,2560.7,87.3,2625.4,92.4z"/>
	<path class="st0" d="M209.7,168.8c164,12,272.6-70.6,379.4-168.8h-99.3c-25.3,20.4-51.4,39.3-78.8,55.5
		c-67,39.7-135.5,59.1-208.4,59.1c-10.2,0-20.5-0.4-30.8-1.1C97,108,46.9,85.1,0,61.6v36c9.6,4.6,19,9.4,28.4,14.1
		C78.2,136.9,129.8,163,209.7,168.8z"/>
	<path class="st0" d="M2650.8,142.6c50.5,3.5,126.8-26.8,194.3-77.1c26.8-19.9,51.1-42,72.6-65.5h-70.8c-6.5,5.6-13.2,11-20,16.3
		c-70.2,54.4-147.6,85.5-201.9,81.3c-66-5.2-125.5-44.8-188.5-86.8c-5.4-3.6-10.8-7.2-16.3-10.8h-54.9
		c36.7,16.9,71.1,39.5,104.9,61.8C2529.8,101.1,2586.1,138.2,2650.8,142.6z"/>
	<path class="st0" d="M1871.1,231.2c87.2-18.4,143.5-62.3,198-104.6c66.2-51.4,128.6-100,237-92.3c75.7,5.4,136.2,44.8,194.8,82.9
		c56.8,37,110.5,71.9,175.1,75.7c48.7,2.8,123.5-26.2,190.5-74C2915,84.3,2955,43.7,2984.4,0h-59.9
		c-81.7,91.4-193.5,148.1-265.4,148.1c-3,0-5.8-0.1-8.7-0.3c-66-4.5-122.9-42-183.1-81.7c-36.9-24.3-74.6-49.1-115-66.2h-210
		c-39.1,17.5-72,43.3-106,70c-54.6,42.8-111,87.1-199.5,105.8c-25,5.3-48.6,7.7-71,7.7c-110.5,0-192.7-58.7-278.8-120.3
		c-30.3-21.6-60.8-43.5-93.2-63.1h-82.5c83.1,24.5,150,72.5,215.4,119.5C1628.7,192.8,1725.1,262.1,1871.1,231.2z"/>
	<path class="st0" d="M247.2,229.4c186,13.6,300.9-94.6,422.5-209.1c7.2-6.8,14.4-13.5,21.6-20.3h-94.5
		c-46.6,43-95.2,84.7-148.3,116.1c-67,39.7-135.5,59.1-208.4,59.1c-10.2,0-20.5-0.4-30.8-1.1c-81-5.9-133-32.2-183.4-57.6
		c-8.7-4.4-17.3-8.7-26-13v38.3c23.5,9.2,44.8,20,65.9,30.6C115.7,197.5,167.3,223.5,247.2,229.4z"/>
	<path class="st0" d="M2912.4,230c-64.7,42-135.3,68.6-181.5,68.6c-1.4,0-2.8,0-4.2-0.1c-66.1-2.5-115-33.4-166.8-66.1
		c-51.7-32.7-105.2-66.5-179-71.8c-106.6-7.6-169.5,40.5-236.1,91.5c-55.7,42.6-113.3,86.7-201.5,105.4c-25,5.3-48.5,7.7-70.8,7.7
		c-110.1,0-190.8-58.6-275.5-120.1c-93.5-67.9-190.3-138.1-335.3-135c-174.2,3.7-289.4,112.2-400.7,217
		c-58.6,55.2-119.2,112.3-187.3,152.5c-67,39.7-135.5,59.1-208.4,59.1c-10.2,0-20.5-0.4-30.8-1.1c-81-5.9-133-32.2-183.4-57.6
		c-61.6-31.1-119.7-60.5-227-54.9c-8,0.4-16,1-24,1.8v60.4c20.3-3.5,40.7-5.8,61.2-6.9c108.6-5.7,170.1,25.4,229.6,55.4
		c49.9,25.2,101.4,51.2,181.4,57.1c186,13.6,300.9-94.6,422.5-209.1c112.1-105.5,228-214.7,404.2-218.4c3.2-0.1,6.3-0.1,9.5-0.1
		c141.6,0,236.4,69.2,328.2,136.2c100.3,73.2,195,142.4,341,111.5c86.9-18.4,144.5-62,200.1-104.3c68.1-51.6,132.3-100.4,241-92.7
		c74.8,5.3,125.6,37,174.8,67.5c48.3,30,93.9,58.4,158.7,60c0.9,0,1.7,0,2.6,0c57.4,0,166.6-46.2,245.2-115.3v-70
		C2969.3,190.3,2936.1,214.6,2912.4,230z"/>
	<path class="st0" d="M2990.7,0c-29.9,45.3-71.1,87.5-121,123.1c-67.9,48.5-144,77.9-193.8,74.9c-66.1-3.9-120.3-39.2-177.7-76.5
		c-58-37.7-117.9-76.8-192.3-82.1c-106.4-7.6-168.1,40.4-233.4,91.2c-55,42.7-111.8,86.9-200.2,105.6c-25,5.3-48.6,7.7-70.9,7.7
		c-110.4,0-192-58.7-277.7-120.2C1453.8,73.6,1382.1,22.1,1290.9,0h-191.3C971.9,30.7,877.6,119.5,785.9,205.9
		C727.2,261,666.6,318.1,598.6,358.4c-67,39.7-135.5,59.1-208.4,59.1c-10.2,0-20.5-0.4-30.8-1.1c-81-5.9-133-32.2-183.4-57.6
		c-51-25.8-99.8-50.4-176-54.8v54.8c100.1-2.5,158.9,27.2,215.9,55.9c49.9,25.2,101.4,51.2,181.4,57.1
		c186,13.6,300.9-94.6,422.5-209.1C931.8,157.1,1047.7,48,1224,44.2c146.8-3.2,244.7,67.6,339.4,136
		c101.4,73.3,197.2,142.5,343.3,111.6c87.1-18.4,143.9-62.2,198.7-104.5c66.8-51.5,129.9-100.1,238.3-92.4
		c75.4,5.4,132.7,42.2,188.1,77.7c54,34.7,105,67.4,169.7,70.5c46.9,2.3,120.2-25.6,186.6-70.8c30-20.5,75.6-56.3,111.9-105.3V0
		H2990.7z"/>
	<path class="st0" d="M2754.8,348.8c-0.9,0-1.8,0-2.7,0c-66.2-1.7-112.4-30.4-161.3-60.8c-48.6-30.2-98.9-61.5-172.4-66.7
		c-106.7-7.6-170.2,40.6-237.4,91.6c-56.1,42.6-114.1,86.6-202.2,105.2c-148.2,31.4-243.9-38.5-345.2-112.4
		c-93.1-67.9-189.3-138.2-334.4-135.1c-174.2,3.7-289.4,112.2-400.7,217c-58.6,55.2-119.2,112.3-187.3,152.5
		c-67,39.7-135.5,59.1-208.4,59.1c-10.2,0-20.5-0.4-30.8-1.1c-81-5.9-133-32.2-183.4-57.6c-61.6-31.1-119.7-60.5-227-54.9
		c-20.6,1.1-41.2,3.4-61.5,7v63.2c32.4-8.1,65.5-13.1,98.7-14.9c108.6-5.7,170.1,25.4,229.6,55.4c49.9,25.2,101.4,51.2,181.4,57.1
		c186,13.6,300.9-94.6,422.5-209.1c112.1-105.5,228-214.7,404.2-218.4c146.9-3.1,243.4,67.7,336.8,136.1
		c99.7,73.2,193.9,142.3,339.8,111.4c86.9-18.4,144.8-62,200.8-104.1c68.7-51.7,133.6-100.6,242.3-92.8
		c74.4,5.3,122.1,34.4,168.2,62.5c45.4,27.7,88.3,53.9,153.2,54.7c0.4,0,0.9,0,1.3,0c50.1,0,145.6-37,221.1-92.2v-66.2
		c-23.9,20.6-47.9,36.8-66.2,48.1C2869.9,322.8,2798.5,348.8,2754.8,348.8z"/>
	<path class="st0" d="M2891,176.6c-67.3,45.9-141.8,74.1-189.8,71.8c-66.1-3.2-117.7-36.3-172.3-71.4
		c-54.8-35.2-111.5-71.6-185.6-76.9c-106.5-7.6-168.8,40.5-234.8,91.3c-55.3,42.7-112.6,86.8-200.9,105.5
		c-148.3,31.4-245-38.5-347.4-112.5c-94-67.9-191.2-138-336.2-135c-174.2,3.7-289.4,112.2-400.7,217
		C764.7,321.6,704.1,378.7,636.1,419c-67,39.7-135.5,59.1-208.4,59.1c-10.2,0-20.5-0.4-30.8-1.1c-81-5.9-133-32.2-183.4-57.6
		c-59-29.8-114.8-58-213.5-55.4v57.7c7.9-0.8,15.8-1.4,23.7-1.8c108.6-5.7,170.1,25.4,229.6,55.4c49.9,25.2,101.4,51.2,181.4,57.1
		c186,13.6,300.9-94.6,422.5-209.1c112.1-105.5,228-214.7,404.2-218.4c146.9-3.2,244.3,67.6,338.5,136
		c100.9,73.2,196.1,142.4,342.1,111.6c87-18.4,144.2-62.1,199.4-104.4c67.4-51.6,131.1-100.3,239.7-92.6
		c75.1,5.4,129.2,39.5,181.5,72.6c51.2,32.4,99.5,62.9,164.2,65.3c44.4,1.7,117.8-25.6,182.7-67.7c24.4-15.9,59.1-41.3,90.4-74.9
		V75.6C2963.9,122.4,2920.2,156.6,2891,176.6z"/>
	<path class="st0" d="M322.2,350.6c186,13.6,300.9-94.6,422.5-209.1C798.1,91.2,852.4,40.1,913.6,0H804.3c-32.2,27-63,56-93.5,84.7
		C652.2,139.9,591.6,197,523.6,237.2c-67,39.7-135.5,59.1-208.4,59.1c-10.2,0-20.5-0.4-30.8-1.1c-81-5.9-133-32.2-183.4-57.6
		c-32.1-16.2-63.3-32-101-42.5v47.2c57.8,9.3,99.8,30.5,140.9,51.3C190.7,318.7,242.3,344.7,322.2,350.6z"/>
	<path class="st0" d="M2777.5,399c-66.3-0.9-109.8-27.4-155.8-55.5c-45.6-27.8-92.7-56.5-165.8-61.7
		c-106.8-7.6-170.9,40.7-238.8,91.8c-56.5,42.5-114.9,86.5-202.9,105.1c-25,5.3-48.5,7.7-70.7,7.7c-109.7,0-189.6-58.6-273.3-120
		c-92.6-68-188.4-138.2-333.5-135.1c-174.2,3.7-289.4,112.2-400.7,217c-58.6,55.2-119.2,112.3-187.3,152.5
		c-67,39.7-135.5,59.1-208.4,59.1c-10.2,0-20.5-0.4-30.8-1.1c-81-5.9-133-32.2-183.4-57.6c-61.6-31.1-119.7-60.5-227-54.9
		c-33.4,1.8-66.6,6.8-99,15V630c40.7-13.6,86-23.2,136.4-25.9c197.8-10.4,233.5,99.5,410.7,112.5c364.3,26.7,466.7-419.8,827-427.5
		c303.8-6.5,391.9,307.4,675.1,247.5c195.3-41.3,249.3-210.8,444.4-196.9c147.2,10.5,171.2,110.9,309.4,106.9
		c70-2,138-30,197.1-72.7v-66.2c-76.1,54.8-171,91.3-221.2,91.3C2778.4,399,2777.9,399,2777.5,399z"/>
	<path class="st0" d="M284.7,290c186,13.6,300.9-94.6,422.5-209.1c29-27.4,58.4-54.9,88.9-80.9h-97.1c-8.6,8-17.2,16.1-25.7,24.1
		c-58.6,55.2-119.2,112.3-187.3,152.5c-67,39.7-135.5,59.1-208.4,59.1c-10.2,0-20.5-0.4-30.8-1.1c-81-5.9-133-32.2-183.4-57.6
		C42.6,166.5,22.1,156.1,0,147.3v42.5c39.5,10.9,71.7,27.1,103.4,43.1C153.2,258.1,204.8,284.1,284.7,290z"/>
	<path class="st0" d="M359.7,411.1c186,13.6,300.9-94.6,422.5-209.1c87.6-82.5,177.5-167.2,296.8-202H923.3
		c-63.7,40.5-119.8,93.3-175,145.3c-58.6,55.2-119.2,112.3-187.3,152.5c-67,39.7-135.5,59.1-208.4,59.1c-10.2,0-20.5-0.4-30.8-1.1
		c-81-5.9-133-32.2-183.4-57.6C96.3,276.9,55.8,256.4,0,247.4v51.3c78.1,4.7,128.9,30.4,178.4,55.3
		C228.2,379.2,279.8,405.3,359.7,411.1z"/>
</g>
</svg>
