<?xml version="1.0" encoding="utf-8"?>
<!-- Generator: Adobe Illustrator 25.4.1, SVG Export Plug-In . SVG Version: 6.00 Build 0)  -->
<svg version="1.1" id="banner" xmlns="http://www.w3.org/2000/svg" xmlns:xlink="http://www.w3.org/1999/xlink" x="0px" y="0px"
	 viewBox="0 0 2369.1 1024.4" style="enable-background:new 0 0 2369.1 1024.4;" xml:space="preserve">
<style type="text/css">
	.st0{fill:#3D3D3D;}
</style>
<g>
	<path class="st0" d="M2246.9,631.4c-66.6,28.6-83.9,108-102.2,192c-15,68.9-31.6,145-78.2,201h90.1c18.4-43.8,28.2-93.1,37.9-141.6
		c17.6-88.2,34.2-171.6,103.3-201.2c24-10.3,47.7-13.8,71.3-12.6v-40.4C2328.4,616.5,2288.1,613.7,2246.9,631.4z"/>
	<path class="st0" d="M2081,270.6c-67.2-28.5-130.7-55.4-204.8-23.7c-67.8,29.1-91.6,89.9-116.9,154.4
		c-26.3,67.2-56.2,143.4-140.7,196.8c-21.1,13.3-42.3,19.1-64.2,19.1c-51.1,0-106.5-31.1-175.1-69.7
		c-34.6-19.5-73.8-41.5-117.1-61.9c-96.7-45.6-186.5-46.7-240.3-2.9c-59.9,48.8-73.6,148.3-39.8,287.9c14.1,58,7.5,100-19.4,124.7
		c-19.3,17.7-49.1,26.6-89.2,26.6c-49.6,0-114.9-13.5-195.5-40.6c-177.2-59-280.6,67.4-330.3,128.1c-4.2,5.1-8.4,10.1-12.5,14.9
		h60.5c27.6-31.8,63.5-67,109.5-91.5c65.3-34.6,137.1-39.5,213.6-14.5c153.8,50.9,253.6,56.6,296.8,16.8
		c23.5-21.6,29.6-56.4,18.2-103.4c-33.9-139.8-20.4-239.2,38.9-287.5c28.5-23.1,66.1-33.8,111.8-31.7c41.9,2,89.4,15,137.4,37.8
		c41.9,19.8,80.1,41,113.7,59.7c98,54.4,168.7,93.7,237.1,50.5c83.2-52.6,110.4-128,136.7-200.9c24.6-68.3,47.9-132.9,117.6-162.7
		c76.1-32.6,141.6-4.3,210.9,25.6c61.9,26.7,126,54.4,205.9,45.4c8.1-0.9,16.5-2.4,25.1-4.5v-73.6c-29.4,13.4-57.1,21.8-81.7,24.6
		C2206.2,323.8,2142.5,296.7,2081,270.6z"/>
	<path class="st0" d="M2026,213.7c-66.1-27.5-128.5-53.6-202.7-21.7c-68,29.2-91.7,84.7-119.1,149.1
		c-27.3,64.1-58.3,136.7-142.5,190c-20.7,13.1-41.5,18.8-63.1,18.8c-50.6,0-105.3-31.1-173.3-69.8c-35.6-20.2-75.9-43.2-120.6-64.1
		c-93.7-44-182.3-43.7-236.9,0.9c-43.3,35.4-85.9,115.1-42.6,293.9c10.7,44.3,20.6,107.1-17.4,141.8c-19.4,17.8-49.8,26.3-90.2,25.5
		c-45.7-1-105.9-14-178.8-38.8C467.8,781.4,365.8,906,311.1,973l-0.1,0.2c-15.6,19.1-31.4,36.2-47.5,51.3h64.7
		c5.1-5.9,10.3-11.9,15.4-18.2c33.9-41.4,72.3-83.8,123.6-112.7c64.9-36.6,136.4-42.4,212.4-17.1c143.8,48.3,237.8,53.3,279.5,15.1
		c25.4-23.3,31.4-63.6,17.9-119.6c-43.4-179-1.3-258.3,41.6-293.2c55.4-45.1,147.3-44.3,245.9,2.2c43.4,20.5,82.7,42.6,117.4,62.1
		c96.6,54.3,166.4,93.5,234,50.8c83-52.5,112.5-127.8,138.6-194.3c25.7-65.5,49.9-127.4,119.7-157.3c76.2-32.7,140.6-5.3,208.9,23.7
		c60.9,25.9,123.9,52.6,203.8,43.7c25.5-2.9,53.6-11.9,82.2-25.2v-85.4c-46.8,30-95.7,52.3-138.8,57.2
		C2149.2,265.1,2086.6,239,2026,213.7z"/>
	<path class="st0" d="M1971,156.9c-65-26.6-126.4-51.6-200.7-19.8c-68.3,29.3-92.9,82.4-121.4,143.8
		c-28.3,61-60.3,130.1-144.2,183.1c-68.7,43.4-137.9,3.6-233.6-51.5c-36.5-21-77.9-44.8-123.9-66.3c-90.8-42.5-178-40.8-233.4,4.5
		c-30.1,24.6-49.7,60.9-58.3,107.9c-9.6,52.4-5.3,117,12.9,192c15.2,62.6,24,125.3-13.6,159.5c-40.1,36.5-123.5,32.2-255.1-13
		c-165.6-56.8-262.4,62-320.2,133l-5.5,6.7c-30.4,37.1-62.5,66.1-97.3,87.6h78.9c17.3-15.9,34.3-34,51.1-54.6l0.1-0.2
		c28.7-35.1,68.1-83.3,122.5-115.8c64.5-38.6,135.5-45.2,211.1-19.6c135.2,45.9,223.9,50.8,263.8,14.4
		c35.9-32.8,26.2-93.8,15.8-136.7c-44-181.5-0.2-262.9,44.3-299.2c56.2-45.9,146.9-46.5,242.5-1.5c44.8,21,85.3,44,120.9,64.3
		c95.3,54.2,164.2,93.4,231,51.1c82.8-52.4,113.4-124.2,140.4-187.6c26.7-62.7,51.9-121.9,121.9-151.9
		c76.2-32.7,139.7-6.3,206.8,21.7c59.9,25,121.9,50.8,201.7,41.9c43.2-4.8,92.4-27.6,139.4-58.1V97.4
		c-62.8,49.8-135.2,93-195.9,99.9C2092.2,206.4,2030.6,181.2,1971,156.9z"/>
	<path class="st0" d="M2141,521.6c-66.9,28.7-86,102.8-106.3,181.2c-21.4,82.7-45.6,176.5-131,230.6
		c-74.9,47.4-151.5,6.6-257.5-49.8c-28.8-15.3-61.4-32.7-96.4-49.5c-115.5-55.7-206.5-64.1-256.3-23.9
		c-44,35.6-56.4,107.6-37.1,214.3h43.7c-5.2-73.8,9.7-125.2,44.6-153.3c64.2-51.8,179.5-13.4,264.9,27.9
		c33.2,16,62.8,31.7,91.6,46.8c110.4,58.2,183.3,96.6,256.7,50.2c83.8-53,105.6-145,126.7-234c19.6-82.5,38.1-160.5,107.3-190.2
		c60.7-26,118.2-10,177.2,15.4V561c-4.4-2-8.8-4-13.1-6C2283.3,521.5,2214.6,490,2141,521.6z"/>
	<path class="st0" d="M2115.7,136c-172.4,19.3-258.4-116.7-399.4-56.3c-139.8,60-105.2,210.8-270,315
		c-93.9,59.4-192.3-44.7-355.4-120.6c-168.6-78.5-359.5-3.7-281.8,317.1C832.9,689.6,882,864,561.6,752.5
		c-172.5-60-269.6,77-326.2,146.2c-76.1,93-157.7,117.3-235.3,125.6h166.6c37.3-21.6,71.4-51.6,103.5-90.9l5.4-6.7
		c28.7-35.2,68-83.4,121.1-115.5c62.7-37.8,131.6-44.3,204.9-19.2c127.8,43.9,211.8,48.7,249.8,14.1c35.6-32.4,26.8-93.3,12-154.4
		c-18.4-75.8-22.7-141.1-13-194.2c8.9-48.3,29.1-85.6,60.2-111c56.9-46.6,146.3-48.5,238.9-5.1c46.2,21.6,87.7,45.5,124.3,66.5
		c94.1,54.2,162.1,93.3,228.2,51.6c82.6-52.2,114.3-120.6,142.3-180.9c27.8-59.8,54-116.4,124.1-146.5
		C1844.6,99.5,1907,125,1973,152c59,24.1,119.9,49,199.6,40.1c44.5-5,101.2-31.5,163.7-76.6c10.9-7.8,21.8-16.2,32.8-25V0
		C2299,68.3,2216.8,124.7,2115.7,136z"/>
	<path class="st0" d="M2136,327.5c-68.3-29.5-132.8-57.4-206.8-25.6c-67.6,29-90.5,92.5-114.7,159.7
		c-25.4,70.3-54.1,150-138.8,203.6c-21.5,13.6-43,19.4-65.4,19.4c-51.7,0-107.7-31.1-177.1-69.7c-33.6-18.7-71.6-39.8-113.4-59.6
		c-99.7-47.3-190.8-49.8-243.7-6.8c-57.6,46.9-70.5,144.5-37.1,282.2c11.9,49,5.2,85.4-19.8,108.5c-44.7,41.2-146.3,35.9-302-15.6
		c-149.6-49-249.4,27.7-314.4,100.9h65.5c20.8-18.9,45.7-37.4,74.9-52c65.6-32.7,137.9-36.7,214.8-11.8
		c162.8,53.2,271.9,60,315.5,19.7c21-19.4,26.8-49.1,17.3-88.4c-17.5-72.1-22.6-133.2-15.1-181.5c6.8-44.4,24.1-78.2,51.5-100.4
		c54.3-44.1,146.3-40.4,252.5,10.2c40.4,19.2,77.3,39.4,109.8,57.3c99.4,54.6,171.2,94.1,240.5,50.2
		c83.3-52.7,109.5-131.4,134.7-207.6c23.6-71.2,45.9-138.4,115.5-168.2c76-32.6,142.6-3.4,213,27.6c54.3,23.9,110.3,48.4,176,48.9
		V369c-8.4,2-16.6,3.4-24.5,4.3C2263.2,382.4,2198.5,354.5,2136,327.5z"/>
	<path class="st0" d="M1982.1,356.8c-67.4,28.9-89.3,95-112.5,165c-24.4,73.4-52,156.6-136.9,210.4c-21.8,13.8-43.8,19.7-66.6,19.7
		c-52.3,0-109-31.2-179.3-69.8c-32.5-17.8-69.3-38.1-109.5-57.2c-104.3-49.7-194.3-53.6-247-10.9c-55.5,45.1-67.4,140.7-34.5,276.6
		c10,41.2,3.7,72.7-18.8,93.5c-45.7,42.3-153.6,36.1-320.7-18.5c-104-33.6-196.1-14.4-279.7,58.8h80.7c7.8-4.6,15.8-8.7,23.8-12.5
		c65.9-30.7,138.6-33.8,215.9-9.2c26.2,8.5,50.5,15.6,73,21.7h264.6c16.1-16.9,20.5-41.3,12.9-72.5
		c-17.3-71.2-22.5-131.3-15.6-178.5c6.3-43.5,23-76.4,49.4-97.9c53.2-43.1,146.4-37.9,255.7,14.4c38.7,18.5,74.3,37.8,105.6,54.8
		c101,54.9,173.9,94.5,244.2,50.1c83.5-52.8,108.5-134.8,132.8-214.2c22.6-74,44-143.9,113.4-173.7c75.9-32.6,143.5-2.4,215.1,29.5
		c38.7,17.3,78.1,34.8,121,44.1v-46.8c-66.8-0.5-123.3-25.2-178.1-49.3C2121.6,353.9,2056,325.1,1982.1,356.8z"/>
	<path class="st0" d="M2088,466.6c-67,28.8-87.1,100.2-108.3,175.8c-22.4,79.6-47.7,169.9-133,223.8c-22.6,14.3-45.4,20.4-69.1,20.4
		c-53.6,0-112-31.4-184.3-70.2c-30.1-16.2-64.2-34.5-101-52.2c-52-24.9-101.6-40.4-143.5-44.6c-46.4-4.7-83.3,3.8-109.8,25.2
		c-24.5,19.8-39.8,50.8-45.5,92.1c-6.3,45.5-0.9,104,16,173.7c1.2,4.8,2,9.3,2.5,13.7h39.2c-19.5-108.3-6.4-181.6,39.1-218.4
		c51.5-41.6,144.5-33.3,261.9,23.3c35.1,16.9,67.8,34.3,96.6,49.6c108.3,57.7,179.9,95.8,252.2,50
		c83.7-52.9,106.6-141.6,128.8-227.4c20.6-79.7,40-155,109.3-184.7c75.8-32.5,145.5-0.5,219.2,33.4c3.6,1.7,7.3,3.4,10.9,5v-28.1
		c-23.3-8.7-45.8-18.9-68.1-29.1C2229.4,465.6,2161.8,435,2088,466.6z"/>
	<path class="st0" d="M2035.1,411.7c-67.2,28.8-88.2,97.6-110.4,170.4c-23.4,76.5-49.9,163.3-135,217.1
		c-72.8,46.1-146.9,5.8-249.5-49.9c-31.3-17-66.8-36.3-105.4-54.7c-107.4-51.4-198.6-56.9-250.2-15.1
		c-25.4,20.6-41.4,52.4-47.5,94.5c-6.8,46.6-1.6,106,15.5,176.5c7.5,31,3.8,55.7-11,73.7h65c-0.5-4-1.2-8.2-2.3-12.5
		c-33-136.3-22.5-227.5,31.4-271.1c27.6-22.3,65.8-31.2,113.6-26.4c42.5,4.3,92.7,19.9,145.2,45.1c37,17.7,71.1,36.1,101.2,52.3
		c102.7,55.2,176.8,95.1,248.1,50c83.6-52.9,107.6-138.3,130.8-220.8c21.6-76.9,42-149.4,111.3-179.2
		c75.9-32.5,144.5-1.4,217.2,31.5c21.6,9.8,43.5,19.7,66,28.2v-35.6c-43.8-9.3-83.9-27.1-123.1-44.7
		C2175.5,409.8,2108.9,380.1,2035.1,411.7z"/>
</g>
</svg>
